<?xml version="1.0" standalone="no"?>
<!DOCTYPE svg PUBLIC "-//W3C//DTD SVG 1.1//EN" "http://www.w3.org/Graphics/SVG/1.1/DTD/svg11.dtd" >
<svg xmlns="http://www.w3.org/2000/svg">
<metadata>Generated by IcoMoon</metadata>
<defs>
<font id="icomoon" horiz-adv-x="1024">
<font-face units-per-em="1024" ascent="960" descent="-64" />
<missing-glyph horiz-adv-x="1024" />
<glyph unicode="&#x20;" horiz-adv-x="512" d="" />
<glyph unicode="&#xe900;" glyph-name="s1_logo" horiz-adv-x="736" d="M17.297 583.299c0-14.147 10.595-21.222 24.722-17.683l197.776 61.898c12.361 3.539 24.722-3.536 24.722-17.683v-656.141c0-14.147 10.595-21.222 24.722-17.683l155.395 49.52c12.362 3.536 24.723 19.453 24.723 31.834v656.138c0 14.148 0 37.14 0 49.52v134.411c0 14.148-10.595 21.223-24.723 17.686l-400.849-123.8c-15.893-5.306-26.488-19.454-26.488-33.603v-134.412zM573.542 915.794c-12.362-3.537-24.723-19.454-24.723-31.834v-134.411c0-14.148 10.595-21.223 24.723-17.686l137.738 42.446c12.362 3.537 24.72 19.454 24.72 31.834v134.411c0 14.149-10.595 21.223-24.72 17.686l-137.738-42.446z" />
<glyph unicode="&#xe901;" glyph-name="down" d="M190.706 619.961c11.361 11.361 29.138 12.393 41.666 3.098l3.589-3.098 276.039-276.025 276.041 276.025c11.358 11.361 29.137 12.393 41.664 3.098l3.588-3.098c11.362-11.361 12.395-29.138 3.098-41.666l-3.098-3.589-298.667-298.665c-11.358-11.362-29.137-12.395-41.664-3.098l-3.588 3.098-298.668 298.665c-12.497 12.497-12.497 32.758 0 45.255z" />
<glyph unicode="&#xe902;" glyph-name="left" d="M662.626 726.627c12.497-12.497 12.497-32.758 0-45.255l-233.37-233.373 233.37-233.374c12.497-12.497 12.497-32.755 0-45.252s-32.755-12.497-45.252 0l-256.001 256c-12.497 12.497-12.497 32.755 0 45.252l256.001 256.001c12.497 12.497 32.755 12.497 45.252 0z" />
<glyph unicode="&#xe903;" glyph-name="right" d="M361.373 726.627c-12.497-12.497-12.497-32.758 0-45.255l233.371-233.373-233.371-233.374c-12.497-12.497-12.497-32.755 0-45.252s32.758-12.497 45.255 0l255.999 256c12.497 12.497 12.497 32.755 0 45.252l-255.999 256.001c-12.497 12.497-32.758 12.497-45.255 0z" />
<glyph unicode="&#xe904;" glyph-name="close" d="M558.908 447.578l199.364 199.368c12.975 12.968 12.975 33.936 0 46.904-12.971 12.968-33.937 12.968-46.903 0l-199.373-199.369-199.361 199.369c-12.974 12.968-33.936 12.968-46.904 0-12.974-12.968-12.974-33.936 0-46.904l199.362-199.368-199.362-199.369c-12.974-12.966-12.974-33.937 0-46.903 6.463-6.468 14.961-9.719 23.452-9.719s16.983 3.251 23.452 9.719l199.361 199.369 199.373-199.369c6.468-6.468 14.959-9.719 23.45-9.719s16.986 3.251 23.454 9.719c12.975 12.966 12.975 33.937 0 46.903l-199.364 199.369z" />
<glyph unicode="&#xe905;" glyph-name="check" d="M801.19 694.335c12.634-12.887 12.634-33.782 0-46.669l-395.507-403.335c-12.637-12.885-33.126-12.885-45.763 0l-179.775 183.334c-12.637 12.89-12.637 33.783 0 46.669 12.637 12.89 33.126 12.89 45.763 0l156.893-160 372.625 380.001c12.638 12.887 33.126 12.887 45.764 0z" />
<glyph unicode="&#xe906;" glyph-name="search" d="M160 490.667c0-170.842 138.493-309.333 309.333-309.333 83.652 0 159.552 33.207 215.232 87.155 0.956 1.306 2.027 2.556 3.209 3.738s2.432 2.253 3.738 3.209c53.948 55.68 87.155 131.58 87.155 215.232 0 170.84-138.492 309.333-309.333 309.333-170.84 0-309.333-138.493-309.333-309.333zM709.726 205.018c-64.947-54.716-148.821-87.684-240.393-87.684-206.186 0-373.333 167.147-373.333 373.333s167.147 373.333 373.333 373.333c206.187 0 373.333-167.147 373.333-373.333 0-91.571-32.969-175.445-87.684-240.393l163.644-163.648c12.497-12.497 12.497-32.755 0-45.252s-32.755-12.497-45.252 0l-163.648 163.644z" />
<glyph unicode="&#xe907;" glyph-name="globe" d="M475 916c-89.2-7.6-172.8-39.2-244.6-92.8-27.4-20.4-73.2-66.2-93.6-93.6-138.6-186-122.6-441.2 38.2-607.4 90.2-93.2 207.6-142.8 337-142.8 54 0 98.6 7 146 22.6 72 23.8 130.4 60.2 185.2 114.8 62.2 62.4 102.2 132.2 123.6 216.2 18.6 72.2 18.6 157.6 0 230-39.6 155.8-155.6 280.2-308.4 330.8-56.4 18.6-126 27-183.4 22.2zM529.2 826.2c40.2-23.2 79.6-111.4 97.8-218.8 5.6-34 11-84 11-103.4v-14l-252.8 1 0.6 14c0.6 22.8 5.8 69.8 11.2 102.2 14.8 88.6 45.4 167.6 78.6 203.2 11.6 12.4 27 21.6 36.4 21.6 4 0 11.2-2.4 17.2-5.8zM361.2 787.8c-32.4-71.2-55-173.2-60.4-273.2l-1.4-24.6h-169.4l1.2 8.6c16 111.6 77.2 208.8 169.6 269.8 17.2 11.4 65 36.4 66.6 35 0.4-0.4-2.4-7.4-6.2-15.6zM685.2 790.4c112.4-56.6 189.2-164.4 207.6-291.8l1.2-8.6h-169.4l-1.4 24.6c-4 72.6-18.4 154-38.4 215.6-6 18.8-12.4 35-28.2 71.4-1.4 3.4 3.6 1.4 28.6-11.2zM300.8 381.6c5.4-98.2 26.8-196.6 58.2-268.2 5-11 8.6-20.4 8.2-20.8-0.2-0.4-11.2 4.6-24.4 11.2-49.6 24.4-89.4 55.6-124.4 97.2-46.6 55.4-76.6 123-87.2 196.6l-1.2 8.4h169.4l1.4-24.4zM638 392c0-19.8-5.4-70-11.2-104-18.6-108.2-57.4-195-97.6-218.2-13-7.4-21.4-7.4-34.4 0-40.4 23.2-80 112-97.8 219-6.8 41.2-12.6 101.6-11.2 115.8 0.2 0.8 57 1.4 126.2 1.4h126v-14zM893 398.6c-8-48.6-17.4-80-35-116.2-38.4-79.4-98-139.6-176.8-178.6-13.2-6.6-24.2-11.6-24.4-11.2-0.4 0.4 3.2 9.8 8.2 21 31 70.6 53 171.2 58.2 268l1.4 24.4h169.6l-1.2-7.4z" />
<glyph unicode="&#xe908;" glyph-name="info" d="M512-10.667c-253.013 0-458.667 205.653-458.667 458.667s205.653 458.667 458.667 458.667c253.013 0 458.667-205.653 458.667-458.667s-205.653-458.667-458.667-458.667zM512 842.667c-217.6 0-394.667-177.067-394.667-394.667s177.067-394.667 394.667-394.667c217.6 0 394.667 177.067 394.667 394.667s-177.067 394.667-394.667 394.667zM512 373.333c-17.493 0-32 14.507-32 32v213.333c0 17.493 14.507 32 32 32s32-14.507 32-32v-213.333c0-17.493-14.507-32-32-32zM512 234.672c-5.547 0-11.093 1.28-16.213 3.413s-9.813 5.12-14.080 8.96c-3.84 4.267-6.827 8.533-8.96 14.080-2.133 5.12-3.413 10.667-3.413 16.213s1.28 11.093 3.413 16.213c2.133 5.12 5.12 9.813 8.96 14.080 4.267 3.84 8.96 6.827 14.080 8.96 10.24 4.267 22.187 4.267 32.427 0 5.12-2.133 9.813-5.12 14.080-8.96 3.84-4.267 6.827-8.96 8.96-14.080s3.413-10.667 3.413-16.213c0-5.547-1.28-11.093-3.413-16.213-2.133-5.547-5.12-9.813-8.96-14.080-4.267-3.84-8.96-6.827-14.080-8.96s-10.667-3.413-16.213-3.413z" />
<glyph unicode="&#xe909;" glyph-name="success" d="M53.333 448c0 252.34 206.327 458.667 458.667 458.667s458.667-206.327 458.667-458.667c0-252.339-206.327-458.667-458.667-458.667s-458.667 206.327-458.667 458.667zM512 842.667c-216.994 0-394.667-177.673-394.667-394.667s177.673-394.667 394.667-394.667c216.994 0 394.667 177.673 394.667 394.667s-177.673 394.667-394.667 394.667zM715.981 591.357c12.484-12.507 12.467-32.768-0.040-45.255l-241.92-241.493c-12.501-12.479-32.745-12.467-45.235 0.020l-120.747 120.747c-12.496 12.498-12.496 32.759 0 45.255 12.496 12.498 32.759 12.498 45.255 0l98.139-98.139 219.292 218.906c12.507 12.487 32.768 12.467 45.255-0.040z" />
<glyph unicode="&#xe90a;" glyph-name="facebook" d="M886.007 960h-748.016c-76.206 0-137.986-61.777-137.986-137.986v-748.021c0-76.211 61.777-137.988 137.986-137.988h368.919l0.627 365.922h-95.064c-12.354 0-22.382 9.988-22.429 22.345l-0.456 117.952c-0.048 12.42 10.010 22.515 22.432 22.515h94.895v113.971c0 132.262 80.777 204.28 198.763 204.28h96.815c12.39 0 22.434-10.042 22.434-22.432v-99.457c0-12.384-10.039-22.424-22.421-22.432l-59.413-0.028c-64.166 0-76.591-30.49-76.591-75.236v-98.67h140.992c13.436 0 23.859-11.729 22.276-25.071l-13.982-117.952c-1.335-11.285-10.91-19.789-22.272-19.789h-126.383l-0.631-365.922h219.516c76.203 0 137.98 61.777 137.98 137.984v748.030c0 76.209-61.777 137.986-137.988 137.986z" />
<glyph unicode="&#xe90b;" glyph-name="instagram" horiz-adv-x="983" d="M491.426-50.786c-77.054-0.184-148.252 1.769-217.493 5.988-63.48 3.858-121.425 25.797-167.58 63.435-44.535 36.315-74.948 85.418-90.39 145.928-13.44 52.679-14.153 104.391-14.835 154.407-0.495 35.889-1.005 78.414-1.11 121.659 0.105 43.426 0.615 85.95 1.11 121.838 0.683 50.010 1.395 101.723 14.835 154.41 15.443 60.51 45.855 109.613 90.39 145.928 46.155 37.635 104.101 59.573 167.588 63.435 69.24 4.208 140.451 6.173 217.673 5.985 77.079 0.165 148.251-1.778 217.494-5.985 63.48-3.862 121.426-25.8 167.58-63.435 44.544-36.315 74.949-85.418 90.391-145.928 13.439-52.68 14.152-104.4 14.836-154.41 0.496-35.888 1.012-78.412 1.11-121.658v-0.18c-0.098-43.246-0.614-85.77-1.11-121.659-0.684-50.008-1.389-101.72-14.836-154.407-15.442-60.51-45.847-109.613-90.391-145.928-46.154-37.638-104.1-59.576-167.58-63.435-66.31-4.039-134.423-6.001-207.892-6.001l-9.789 0.012zM249.596 440.721c0-132.338 107.67-240.001 239.999-240.001 132.338 0 240.001 107.663 240.001 240.001s-107.663 240.001-240.001 240.001c-132.329 0-239.999-107.663-239.999-240.001zM326.396 440.721c0-89.985 73.215-163.201 163.199-163.201 89.993 0 163.201 73.216 163.201 163.201s-73.208 163.201-163.201 163.201c-89.984 0-163.199-73.216-163.199-163.201zM698.876 699.922c0-31.815 25.793-57.6 57.602-57.6 31.814 0 57.598 25.785 57.598 57.6s-25.784 57.6-57.598 57.6c-31.81 0-57.602-25.785-57.602-57.6z" />
<glyph unicode="&#xe90c;" glyph-name="linkedin" horiz-adv-x="1121" d="M36.425-64h145.699c20.117 0 36.425 16.308 36.425 36.425v636.748c0 20.117-16.308 36.425-36.425 36.425v0h-145.699c-20.117 0-36.425-16.308-36.425-36.425v-636.748c0-20.117 16.308-36.425 36.425-36.425v0zM36.425 757.815h145.699c20.117 0 36.425 16.308 36.425 36.425v129.404c0 20.117-16.308 36.425-36.425 36.425v0h-145.699c0 0 0 0 0 0-20.117 0-36.425-16.308-36.425-36.425 0-0.024 0-0.048 0-0.072v0.004-129.404c0.039-20.087 16.332-36.356 36.425-36.356 0 0 0 0 0 0v0zM1066.176 571.721c-23.735 29.114-54.21 51.845-89.096 65.951l-1.487 0.531c-37.794 16.464-81.825 26.044-128.093 26.044-1.448 0-2.894-0.009-4.337-0.028l0.219 0.002c-1.131 0.014-2.468 0.022-3.806 0.022-97.703 0-185.298-43.275-244.664-111.702l-0.341-0.401c-13.694-14.857-23.347-11.639-23.347 8.49v48.543c0 20.117-16.308 36.425-36.425 36.425v0h-130.088c-20.117 0-36.425-16.308-36.425-36.425v0-636.748c0-20.117 16.308-36.425 36.425-36.425h145.288c20.117 0 36.425 16.308 36.425 36.425v0 221.492c-0.486 9.843-0.763 21.375-0.763 32.972 0 55.592 6.366 109.698 18.408 161.627l-0.939-4.807c11.185 34.262 32.817 62.54 61.079 81.812l0.542 0.349c27.831 19.462 62.382 31.098 99.651 31.098 0.784 0 1.566-0.005 2.347-0.015l-0.119 0.001c1.113 0.034 2.422 0.054 3.735 0.054 26.88 0 51.857-8.153 72.591-22.121l-0.464 0.294c21.053-14.872 36.951-35.793 45.278-60.219l0.253-0.854c9.324-41.307 14.666-88.747 14.666-137.434 0-12.517-0.353-24.951-1.050-37.294l0.077 1.711v-268.94c0-20.117 16.308-36.425 36.425-36.425v0h145.699c20.117 0 36.425 16.308 36.425 36.425v0 360.755c0.151 5.364 0.237 11.677 0.237 18.011 0 45.626-4.473 90.207-13.003 133.328l0.716-4.339c-7.932 35.076-22.527 65.885-42.484 92.434l0.445-0.619z" />
<glyph unicode="&#xe90d;" glyph-name="twitter" horiz-adv-x="1261" d="M1260.67 838.833c-43.231-19.706-93.381-34.046-145.974-40.48l-2.493-0.249c53.421 32.402 93.593 82.084 113.132 141.16l0.526 1.835c-47.303-28.508-102.343-50.292-160.96-62.24l-3.354-0.571c-47.315 50.193-114.248 81.444-188.481 81.444-142.94 0-258.816-115.876-258.816-258.816 0-20.599 2.407-40.636 6.954-59.846l-0.351 1.757c-215.413 11.129-404.887 113.497-531.929 268.895l-1.040 1.312c-21.984-37.25-34.972-82.078-34.972-129.939 0-89.349 45.265-168.126 114.113-214.651l0.916-0.583c-43.157 1.332-83.304 13.035-118.401 32.682l1.307-0.672v-3.246c0.055-124.707 88.279-228.792 205.715-253.304l1.682-0.294c-20.439-5.734-43.912-9.032-68.154-9.037h-0.003c-17.232 0.005-34.049 1.766-50.288 5.113l1.604-0.276c34.032-103.649 129.034-177.548 241.586-179.583l0.238-0.003c-87.226-68.837-198.745-110.414-319.975-110.414-0.558 0-1.117 0.001-1.675 0.003h0.086c-21.864 0.1-43.297 1.462-64.364 4.015l2.635-0.26c111.889-73.101 248.893-116.585 396.053-116.585 0.145 0 0.291 0 0.436 0h-0.024c1.518-0.011 3.313-0.018 5.109-0.018 403.55 0 730.692 327.142 730.692 730.692 0 1.796-0.006 3.591-0.019 5.384l0.002-0.275-0.891 33.474c51.064 36.769 94.016 81.058 128.21 131.742l1.166 1.834z" />
<glyph unicode="&#xe90e;" glyph-name="pinterest" horiz-adv-x="832" d="M430 960c-280.8 0-430-179.8-430-376 0-91 50.8-204.4 132.2-240.4 23.2-10.4 20.2 2.4 40.2 78.6 1.6 6.4 0.8 11.8-4.4 17.8-116.4 134.6-22.8 411.2 245.4 411.2 388 0 315.4-536.8 67.4-536.8-64 0-111.6 50.2-96.4 112.2 18.2 74 54 153.4 54 206.8 0 134.4-200.2 114.4-200.2-63.6 0-55 19.4-92.2 19.4-92.2s-64.4-260-76.4-308.6c-20.2-82.2 2.8-215.4 4.8-227 1.2-6.4 8.4-8.4 12.2-3.2 6.4 8.4 84.2 119.4 106 199.6 8 29.2 40.4 147.8 40.4 147.8 21.4-38.8 83.4-71.2 149.2-71.2 196 0 337.8 172.4 337.8 386.2-0.4 205.4-175.8 358.8-401.6 358.8v0z" />
<glyph unicode="&#xe90f;" glyph-name="youtube" horiz-adv-x="864" d="M849.006 441.791c-10.161 46.289-48.547 80.159-93.707 84.675-107.255 12.419-215.638 12.419-324.022 12.419s-216.767 0-324.022-12.419c-45.16-4.516-82.417-39.515-93.707-84.675-13.548-65.482-13.548-136.609-13.548-204.348s0-138.867 14.677-204.348c10.161-46.289 48.547-80.159 93.707-84.675 107.255-12.419 215.638-12.419 324.022-12.419s216.767 0 324.022 12.419c45.16 4.516 82.417 39.515 93.707 84.675 14.677 65.482 14.677 136.609 14.677 204.348-1.129 67.74 0 138.867-15.806 204.348zM246.121 390.986h-62.095v-331.925h-57.579v331.925h-62.095v54.192h181.768v-54.192zM404.181 59.061h-51.934v31.612c-20.322-23.709-40.644-34.999-59.837-34.999-16.935 0-28.225 6.774-33.87 21.451-3.387 9.032-4.516 22.58-4.516 42.902v226.928h51.934v-212.251c0-12.419 0-18.064 0-20.322 1.129-7.903 5.645-12.419 12.419-12.419 10.161 0 21.451 7.903 32.741 24.838v220.154h51.934l1.129-287.894zM602.884 144.864c0-27.096-2.258-46.289-5.645-57.579-6.774-21.451-21.451-32.741-41.773-32.741-18.064 0-36.128 10.161-54.192 31.612v-28.225h-51.934v387.246h51.934v-126.448c16.935 20.322 34.999 31.612 54.192 31.612 20.322 0 34.999-11.29 41.773-32.741 3.387-11.29 5.645-30.483 5.645-57.579v-115.158zM799.33 193.411h-104.997v-50.805c0-27.096 9.032-39.515 27.096-39.515 12.419 0 20.322 6.774 23.709 21.451 0 3.387 1.129 14.677 1.129 34.999h53.063v-7.903c0-16.935-1.129-28.225-1.129-33.87-2.258-11.29-5.645-22.58-12.419-31.612-14.677-21.451-36.128-31.612-63.224-31.612s-48.547 10.161-63.224 29.354c-11.29 14.677-16.935 37.257-16.935 67.74v100.481c0 30.483 4.516 53.063 15.806 67.74 14.677 19.193 36.128 29.354 62.095 29.354s47.418-10.161 62.095-29.354c11.29-14.677 15.806-37.257 15.806-67.74l1.129-58.708zM721.429 302.924c-16.935 0-25.967-13.548-25.967-39.515v-27.096h51.934v27.096c0 27.096-9.032 39.515-25.967 39.515zM527.241 302.924c-9.032 0-16.935-4.516-25.967-12.419v-176.123c9.032-9.032 16.935-12.419 25.967-12.419 14.677 0 22.58 12.419 22.58 38.386v124.19c1.129 25.967-6.774 38.386-22.58 38.386zM556.595 564.851c19.193 0 39.515 11.29 59.837 36.128v-31.612h53.063v291.281h-53.063v-222.412c-11.29-16.935-22.58-24.838-33.87-24.838-6.774 0-11.29 4.516-12.419 12.419-1.129 2.258-1.129 7.903-1.129 20.322v214.509h-53.063v-230.315c0-20.322 2.258-34.999 4.516-42.902 7.903-15.806 19.193-22.58 36.128-22.58zM189.671 727.427v-158.060h58.708v158.060l69.998 232.573h-58.708l-39.515-153.544-42.902 153.544h-62.095c12.419-36.128 24.838-72.256 37.257-108.384 20.322-55.321 31.612-95.965 37.257-124.19zM397.407 564.851c25.967 0 47.418 10.161 62.095 29.354 11.29 14.677 16.935 37.257 16.935 68.869v101.61c0 31.612-5.645 54.192-16.935 68.869-14.677 20.322-34.999 29.354-62.095 29.354-25.967 0-46.289-10.161-60.966-29.354-11.29-14.677-16.935-37.257-16.935-68.869v-101.61c0-30.483 5.645-54.192 16.935-68.869 13.548-19.193 33.87-29.354 60.966-29.354zM371.44 775.974c0 27.096 7.903 40.644 24.838 40.644s24.838-13.548 24.838-40.644v-123.061c0-27.096-7.903-40.644-24.838-40.644s-24.838 13.548-24.838 40.644v123.061z" />
<glyph unicode="&#xe910;" glyph-name="warning" d="M187.674 772.326c82.968 82.967 197.679 134.34 324.326 134.34s241.357-51.373 324.326-134.34v0c82.965-82.968 134.34-197.679 134.34-324.326s-51.375-241.357-134.34-324.326c-82.97-82.965-197.679-134.34-324.326-134.34s-241.358 51.375-324.326 134.34v0c-82.967 82.97-134.34 197.679-134.34 324.326s51.373 241.358 134.34 324.326v0zM512 842.667c-108.992 0-207.615-44.14-279.072-115.595-71.456-71.457-115.595-170.080-115.595-279.072s44.14-207.616 115.595-279.070c71.457-71.458 170.080-115.597 279.072-115.597s207.616 44.139 279.070 115.597c71.458 71.454 115.597 170.078 115.597 279.070s-44.139 207.615-115.597 279.072c-71.454 71.456-170.078 115.595-279.070 115.595zM512 170.667c29.453 0 53.333 23.881 53.333 53.333s-23.881 53.333-53.333 53.333c-29.453 0-53.333-23.881-53.333-53.333s23.881-53.333 53.333-53.333zM544 704c0 17.673-14.327 32-32 32s-32-14.327-32-32v-341.333c0-17.673 14.327-32 32-32s32 14.327 32 32v341.333z" />
<glyph unicode="&#xe911;" glyph-name="error" d="M512-10.667c-253.013 0-458.667 205.653-458.667 458.667s205.653 458.667 458.667 458.667c253.013 0 458.667-205.653 458.667-458.667s-205.653-458.667-458.667-458.667zM512 842.667c-217.6 0-394.667-177.067-394.667-394.667s177.067-394.667 394.667-394.667c217.6 0 394.667 177.067 394.667 394.667s-177.067 394.667-394.667 394.667zM391.253 295.253c-8.107 0-16.213 2.987-22.613 9.387-12.373 12.373-12.373 32.853 0 45.227l241.493 241.493c12.373 12.373 32.853 12.373 45.227 0s12.373-32.853 0-45.227l-241.493-241.493c-5.973-6.4-14.507-9.387-22.613-9.387zM632.747 295.253c-8.107 0-16.213 2.987-22.613 9.387l-241.493 241.493c-12.373 12.373-12.373 32.853 0 45.227s32.853 12.373 45.227 0l241.493-241.493c12.373-12.373 12.373-32.853 0-45.227-6.4-6.4-14.507-9.387-22.613-9.387z" />
<glyph unicode="&#xe912;" glyph-name="plus" d="M585.144 886.857c0 40.396-32.748 73.143-73.144 73.143s-73.143-32.747-73.143-73.143v-365.714h-365.714c-40.396 0-73.143-32.747-73.143-73.143 0-40.397 32.747-73.144 73.143-73.144h365.714v-365.711c0-40.397 32.747-73.144 73.143-73.144 40.397 0 73.144 32.748 73.144 73.144v365.711h365.711c40.397 0 73.144 32.748 73.144 73.144s-32.748 73.143-73.144 73.143h-365.711v365.714z" />
<glyph unicode="&#xe913;" glyph-name="x" d="M544.926 464.809l221.574-316.932h-90.935l-418.569 598.724h90.934l196.996-281.792zM897.918 940.308h-771.836c-58.756 0-106.39-47.634-106.39-106.39v-771.836c0-58.754 47.634-106.39 106.39-106.39h771.836c58.754 0 106.39 47.636 106.39 106.39v771.836c0 58.756-47.636 106.39-106.39 106.39zM647.712 105.334l-182.969 266.287-229.077-266.287h-59.205l261.993 304.534-261.993 381.303h199.828l173.257-252.157 216.923 252.157h59.203l-249.844-290.408 271.714-395.429h-199.83z" />
<glyph unicode="&#xe914;" glyph-name="paginationRigth" d="M273.504 704l-60.16-60.16 195.413-195.84-195.413-195.84 60.16-60.16 256 256-256 256zM554.66 704l-60.16-60.16 195.414-195.84-195.414-195.84 60.16-60.16 256.003 256-256.003 256z" />
<glyph unicode="&#xe915;" glyph-name="paginationleft" d="M750.496 192l60.16 60.16-195.413 195.84 195.413 195.84-60.16 60.16-256-256 256-256zM469.34 192l60.16 60.16-195.414 195.84 195.414 195.84-60.16 60.16-256-256 256-256z" />
<glyph unicode="&#xe916;" glyph-name="phone" d="M849.181 247.299c-61.857 52.909-124.638 84.958-185.738 32.129l-36.484-31.928c-26.694-23.178-76.326-131.473-268.219 89.272-191.852 220.465-77.684 254.791-50.95 277.769l36.684 31.969c60.78 52.949 37.843 119.603-5.994 188.216l-26.454 41.56c-44.037 68.453-91.99 113.409-152.931 60.541l-32.927-28.772c-26.934-19.621-102.221-83.399-120.483-204.56-21.979-145.378 47.354-311.856 206.199-494.517 158.645-182.74 313.973-274.534 461.109-272.933 122.282 1.317 196.127 66.933 219.225 90.792l33.046 28.811c60.782 52.831 23.018 106.613-38.883 159.642l-37.2 32.010z" />
<glyph unicode="&#xe917;" glyph-name="location" horiz-adv-x="768" d="M384.104 960c-204.49 0-370.854-166.364-370.854-370.852 0-253.776 331.878-626.332 346.008-642.070 13.272-14.784 36.444-14.758 49.692 0 14.13 15.738 346.007 388.294 346.007 642.070-0.006 204.488-166.365 370.852-370.853 370.852zM384.104 402.563c-102.884 0-186.584 83.702-186.584 186.586s83.702 186.584 186.584 186.584c102.882 0 186.582-83.702 186.582-186.586s-83.7-186.584-186.582-186.584z" />
<glyph unicode="&#xe918;" glyph-name="mail" d="M656.992 405.5l-80.4-86.051c-32.605-34.899-89.972-35.654-123.281 0l-80.406 86.051-288.78-309.033c10.749-5.299 22.602-8.467 35.201-8.467h791.253c12.595 0 24.448 3.162 35.194 8.467l-288.781 309.033zM910.573 808h-791.251c-12.6 0-24.452-3.164-35.197-8.466l308.582-330.246c0.021-0.022 0.045-0.026 0.066-0.048s0.024-0.052 0.024-0.052l100.337-107.38c10.658-11.368 32.974-11.368 43.631 0l100.316 107.362c0 0 0.024 0.048 0.045 0.070 0 0 0.045 0.026 0.065 0.048l308.575 330.248c-10.746 5.304-22.592 8.464-35.194 8.464zM43.974 757.578c-5.561-11.996-8.974-25.312-8.974-39.576v-539.999c0-14.266 3.409-27.584 8.972-39.578l289.281 309.567-289.279 309.586zM986.029 757.578l-289.28-309.59 289.28-309.569c5.562 11.994 8.973 25.312 8.973 39.578v540.001c0 14.268-3.411 27.584-8.973 39.58z" />
<glyph unicode="&#xe919;" glyph-name="play" horiz-adv-x="947" d="M179.429 937.422c-92.32 52.956-167.167 9.574-167.167-96.819v-785.13c0-106.5 74.847-149.825 167.167-96.919l686.243 393.555c92.351 52.975 92.351 138.802 0 191.763l-686.243 393.55z" />
<glyph unicode="&#xe91a;" glyph-name="telegram" d="M1024 448c0-282.769-229.231-512-512-512s-512 229.231-512 512c0 282.77 229.23 512 512 512s512-229.23 512-512zM530.342 582.013c-49.796-20.712-149.328-63.584-298.586-128.616-24.238-9.634-36.934-19.063-38.090-28.288-1.955-15.582 17.561-21.717 44.136-30.071 3.612-1.135 7.355-2.313 11.192-3.563 26.142-8.495 61.306-18.436 79.588-18.833 16.582-0.358 35.090 6.481 55.524 20.51 139.456 94.135 211.444 141.719 215.962 142.745 3.191 0.724 7.607 1.632 10.603-1.028 2.995-2.658 2.701-7.701 2.381-9.054-1.933-8.239-78.558-79.475-118.187-116.318-12.343-11.477-21.099-19.618-22.891-21.478-4.015-4.169-8.107-8.115-12.036-11.904-24.286-23.411-42.498-40.969 1.007-69.636 20.924-13.79 37.662-25.186 54.362-36.561 18.219-12.403 36.39-24.781 59.9-40.192 5.995-3.93 11.721-8.009 17.297-11.985 21.21-15.121 40.269-28.706 63.812-26.543 13.679 1.259 27.814 14.127 34.991 52.493 16.96 90.675 50.3 287.142 58.005 368.103 1.011 10.608 0.96 26.636-8.141 34.020-6.131 4.978-15.603 6.028-19.84 5.954-19.255-0.34-48.802-10.614-190.989-69.754z" />
<glyph unicode="&#xe91b;" glyph-name="ok" horiz-adv-x="614" d="M257.34 238.375c-79.347 8.578-151.187 27.879-212.306 76.13-7.506 6.434-15.012 11.795-22.517 18.228-26.806 25.734-30.023 55.757-8.578 85.78 18.228 25.734 48.251 33.24 80.419 18.228 6.434-3.217 11.795-6.434 17.156-10.723 113.659-78.274 271.28-80.419 386.010-3.217 11.795 8.578 23.59 16.084 37.529 19.301 27.879 7.506 52.54-3.217 67.552-26.806 17.156-26.806 16.084-53.613-4.289-75.058-32.168-32.168-69.696-55.757-112.586-72.913-39.673-15.012-83.636-23.59-127.598-28.951 6.434-7.506 9.65-10.723 13.939-15.012 58.974-58.974 117.948-117.948 176.921-177.994 20.373-20.373 24.662-45.035 12.867-68.624-11.795-25.734-38.601-42.89-65.407-40.746-17.156 1.072-30.023 9.65-41.818 21.445-43.962 45.035-90.069 88.997-132.959 134.031-12.867 12.867-19.301 10.723-30.023-1.072-45.035-46.107-90.069-91.141-136.176-136.176-20.373-20.373-45.035-23.59-68.624-12.867-25.734 11.795-41.818 38.601-39.673 64.335 1.072 17.156 9.65 31.095 21.445 42.89 57.902 57.902 116.875 116.875 174.777 174.777 4.289 5.361 7.506 9.65 13.939 15.012zM305.592 442.103c-141.537 0-257.34 117.948-257.34 259.485 1.072 143.682 116.875 258.413 260.557 258.413s258.413-117.948 257.34-262.702c-1.072-141.537-117.948-256.268-260.557-255.196zM434.262 701.587c0 70.769-56.829 126.526-126.526 126.526-70.769 0-127.598-56.829-126.526-127.598 0-69.696 56.829-125.453 127.598-125.453 69.696-1.072 125.453 55.757 125.453 126.526z" />
<glyph unicode="&#xe91c;" glyph-name="vk" horiz-adv-x="1795" d="M1785.209 35.487c-2.291 4.582-4.254 8.509-6.218 11.781-31.090 55.962-90.651 125.014-178.357 206.502l-3.927 3.927h-0.982c-39.926 37.962-65.125 63.489-75.597 76.579-19.308 24.872-23.563 50.071-13.090 75.597 7.527 19.308 35.671 60.216 84.106 122.396 25.526 33.053 45.817 59.562 60.871 79.524 107.669 143.34 154.467 234.973 140.068 274.572l-5.563 9.163c-3.6 5.563-13.418 10.8-28.799 15.381-15.709 4.582-35.671 5.563-59.889 2.291l-269.009-1.964c-4.254 1.636-10.472 1.309-18.654-0.327-8.182-1.964-12.109-2.945-12.109-2.945l-4.582-2.291-3.6-2.945c-3.273-1.964-6.545-5.236-10.145-9.818s-6.872-10.145-9.163-16.363c-29.453-75.27-62.507-145.304-100.142-210.102-22.908-38.617-44.18-71.997-63.489-100.469s-35.344-49.089-48.435-62.507c-13.090-13.418-24.872-24.217-35.671-32.072-10.472-8.182-18.654-11.454-24.217-10.145s-10.8 2.618-16.036 3.6c-8.836 5.563-15.709 13.090-20.945 22.908s-8.836 21.926-10.8 36.326c-1.964 14.727-2.945 27.163-3.273 37.962-0.327 10.472 0 25.526 0.327 44.835 0.655 19.308 0.982 32.399 0.982 39.271 0 23.563 0.327 49.416 1.309 77.234s1.636 49.744 2.291 65.779c0.655 16.036 0.982 33.381 0.982 51.38s-0.982 32.072-3.273 42.544c-2.291 10.145-5.563 20.29-9.818 29.781s-10.8 17.018-19.308 22.581c-8.509 5.236-18.981 9.491-31.417 12.763-33.053 7.527-74.943 11.454-125.996 12.109-115.85 1.309-190.139-6.218-223.192-22.581-13.090-6.872-24.872-16.036-35.344-28.144-11.127-13.745-12.763-21.272-4.582-22.581 37.308-5.563 63.816-18.981 79.524-40.253l5.563-11.127c4.254-8.182 8.836-22.581 13.090-42.871 4.254-20.617 7.2-43.198 8.509-68.070 2.945-45.489 2.945-84.433 0-116.832-3.273-32.399-6.218-57.598-8.836-75.597-2.945-17.999-6.872-32.726-12.763-43.853-5.563-11.127-9.491-17.999-11.127-20.617-1.964-2.618-3.273-3.927-4.582-4.582-8.182-2.945-16.363-4.582-25.199-4.582s-19.308 4.254-31.744 13.090c-12.436 8.836-25.526 20.617-38.617 35.999-13.418 15.381-28.472 36.653-45.489 64.143-16.69 27.49-34.362 59.889-52.362 97.197l-15.054 27.163c-9.491 17.345-22.254 42.871-38.29 76.252-16.363 33.381-30.435 65.452-42.871 96.869-4.909 13.090-12.436 22.908-22.581 29.781l-4.582 2.945c-2.945 2.618-8.182 5.236-15.054 7.854-6.872 2.945-14.072 4.909-21.599 6.218l-255.918-1.964c-26.181 0-43.853-5.891-53.344-17.672l-3.6-5.563c-2.618-4.254-3.6-9.163-3.6-16.036s1.964-15.381 5.563-25.199c37.308-88.033 78.215-172.467 122.068-254.282s82.143-147.267 114.541-197.011c32.399-49.744 65.452-96.869 99.16-141.050s55.962-72.652 66.761-85.088c10.8-12.436 19.636-21.926 25.854-28.144l23.236-22.581c15.054-15.054 36.981-32.726 65.779-53.671 29.126-20.945 61.198-41.562 96.215-61.852 35.344-20.29 76.252-36.653 122.723-49.416 46.798-12.763 92.288-17.999 136.468-15.381h107.342c21.926 1.964 38.29 8.836 49.416 20.617l3.6 4.582c2.618 3.6 4.909 9.491 6.872 17.345 2.291 7.854 3.273 16.363 3.273 25.854-0.655 26.835 1.309 51.053 6.218 72.325 4.582 21.599 9.818 37.635 16.036 48.435 5.891 10.8 12.763 19.963 19.963 27.49 7.527 7.527 12.763 12.109 16.036 13.418 2.945 1.636 5.563 2.618 7.527 3.273 15.054 4.909 32.399 0 52.689-14.399 20.29-14.727 39.271-32.726 56.943-54.325s38.944-45.489 64.143-72.325c24.872-26.835 46.798-46.798 65.452-59.889l18.654-11.127c12.436-7.527 28.799-14.399 48.762-20.617s37.308-7.854 52.362-4.582l239.228 3.6c23.563 0 42.217 3.927 54.98 11.781 13.090 7.854 20.945 16.363 23.236 25.854 2.618 9.491 2.618 19.963 0.327 31.744-1.964 12.109-4.254 20.29-6.218 25.199z" />
<glyph unicode="&#xe91d;" glyph-name="google" d="M931.2 576h-93.4v-92.8h-92.8v-93.4h92.8v-92.8h93.4v92.8h92.8v93.4h-92.8v92.8zM320 128c184.6 0 307.4 129.6 307.4 312.6 0 21-2.2 37.2-5.2 53.2h-302.2v-110h181.6c-7.4-46.8-55-138-181.6-138-109 0-198.2 90.4-198.2 202.2s89.2 202.2 198.2 202.2c62.4 0 103.8-26.6 127.4-49.4l86.8 83.4c-55.8 52.4-127.8 83.8-214.2 83.8-176.8 0-320-143.2-320-320s143.2-320 320-320v0z" />
<glyph unicode="&#xe91e;" glyph-name="tiktok" horiz-adv-x="900" d="M899.205 703.599c-58.491 0-112.576 19.43-155.844 52.081-49.678 37.459-85.534 92.545-98.153 155.844-3.205 15.624-4.808 31.85-5.008 48.476h-167.261v-456.914l-0.2-250.191c0-66.905-43.668-123.593-103.962-143.624-17.628-5.809-36.457-8.613-56.088-7.412-25.239 1.402-48.676 9.014-69.308 21.233-43.668 26.041-73.114 73.315-73.915 127.599-1.202 84.532 67.105 153.64 151.637 153.64 16.626 0 32.651-2.804 47.674-7.612v169.465c-15.825 2.404-31.85 3.606-48.275 3.606-92.545 0-179.080-38.46-240.977-107.768-46.473-52.282-74.516-119.186-78.923-189.095-5.609-91.944 28.044-179.48 93.346-243.981 9.615-9.415 19.631-18.228 30.247-26.441 56.088-43.067 124.394-66.504 196.507-66.504 16.225 0 32.451 1.202 48.275 3.606 67.305 10.016 129.402 40.864 178.479 89.34 60.294 59.493 93.546 138.617 93.947 222.748l-0.801 373.784c28.845-22.235 60.094-40.463 93.947-54.685 52.482-22.235 108.169-33.252 165.258-33.252v166.059c0 0-0.601 0-0.601 0v0z" />
<glyph unicode="&#xe91f;" glyph-name="flickr" horiz-adv-x="1138" d="M256 960c142.222 0 256-108.089 256-238.933s-113.778-233.244-256-233.244-256 108.089-256 233.244 113.778 238.933 256 238.933zM844.506 960c142.222 0 256-108.089 256-238.933s-113.778-233.244-256-233.244-256 108.089-256 233.244 113.778 238.933 256 238.933zM232.656 120.233c0-17.067-11.378-28.444-28.444-28.444h-51.2v-130.844c0-17.067-11.378-28.444-28.444-28.444s-28.444 17.067-28.444 28.444v130.844h-28.444c-17.067 0-28.444 11.378-28.444 28.444s11.378 28.444 28.444 28.444h28.444v22.756c0 39.822 34.133 79.644 85.333 79.644h28.444c17.067 0 28.444-11.378 28.444-28.444s-17.067-28.444-34.133-28.444h-22.756c-17.067 0-28.444-11.378-28.444-22.756v-28.444h56.889c11.378 0 22.756-11.378 22.756-22.756zM312.889-64c-22.756 0-39.822 11.378-39.822 28.444v261.689c0 17.067 17.067 28.444 39.822 28.444s39.822-11.378 39.822-28.444v-261.689c0-17.067-17.067-28.444-39.822-28.444zM472.178-64c-22.756 0-39.822 11.378-39.822 28.444v176.356c0 17.067 17.067 28.444 39.822 28.444s39.822-11.378 39.822-28.444v-176.356c0-17.067-17.067-28.444-39.822-28.444zM648.533-64c-56.889 0-96.711 51.2-96.711 119.467 0 62.578 45.511 119.467 96.711 119.467 34.133 5.689 68.267-11.378 91.022-39.822 5.689-11.378 5.689-34.133-5.689-39.822-11.378-11.378-28.444-5.689-34.133 5.689-17.067 11.378-34.133 22.756-56.889 17.067-28.444 0-51.2-28.444-51.2-56.889 0-34.133 22.756-56.889 51.2-56.889 22.756 0 39.822 5.689 56.889 22.756 11.378 11.378 22.756 11.378 34.133 0s11.378-28.444 0-39.822c-22.756-39.822-51.2-51.2-85.333-51.2zM932.978-58.311c-5.689-5.689-11.378-5.689-17.067-5.689s-11.378 0-17.067 5.689l-62.578 62.578v-39.822c0-17.067-11.378-28.444-28.444-28.444s-28.444 11.378-28.444 28.444v261.689c0 17.067 11.378 28.444 28.444 28.444s28.444-11.378 28.444-28.444v-108.089l39.822 22.756c11.378 5.689 28.444 5.689 34.133-5.689s5.689-28.444-5.689-34.133l-51.2-39.822 79.644-79.644c11.378-11.378 11.378-28.444 0-39.822zM1137.778 140.8c0-17.067-11.378-28.444-28.444-28.444-45.511 0-79.644-39.822-79.644-91.022v-56.889c0-17.067-11.378-28.444-28.444-28.444s-28.444 11.378-28.444 28.444v176.356c0 17.067 11.378 28.444 28.444 28.444s28.444-11.378 28.444-28.444c22.756 17.067 51.2 28.444 79.644 28.444 17.067 5.689 28.444-11.378 28.444-28.444zM472.178 209.067c-22.756 0-39.822 17.067-39.822 39.822s17.067 39.822 39.822 39.822v0c22.756 0 39.822-17.067 39.822-39.822 0-17.067-17.067-39.822-39.822-39.822v0z" />
<glyph unicode="&#xe920;" glyph-name="success1" d="M512-64c-282.77 0-512 229.229-512 512s229.23 512 512 512c282.771 0 512-229.23 512-512s-229.229-512-512-512zM758.822 563.768c15.59 21.439 10.848 51.459-10.592 67.052s-51.456 10.852-67.053-10.587l-222.957-306.568-120.279 120.277c-18.745 18.745-49.137 18.745-67.882 0s-18.745-49.137 0-67.882l160-159.998c9.926-9.926 23.7-15.014 37.696-13.914s26.808 8.269 35.064 19.622l256.003 351.998z" />
<glyph unicode="&#xe921;" glyph-name="failure" horiz-adv-x="1229" d="M510.942 857.933l-428.625-742.399c-45.983-79.647 11.495-179.2 103.461-179.2h857.248c91.969 0 149.443 99.553 103.465 179.2l-428.626 742.399c-45.984 79.645-160.94 79.645-206.923 0zM614.4 686.925c28.277 0 51.2-22.923 51.2-51.2v-238.933c0-28.277-22.923-51.2-51.2-51.2s-51.2 22.923-51.2 51.2v238.933c0 28.277 22.923 51.2 51.2 51.2zM614.4 72.527c-37.702 0-68.267 30.563-68.267 68.267s30.564 68.267 68.267 68.267c37.702 0 68.267-30.563 68.267-68.267s-30.564-68.267-68.267-68.267z" />
</font>
</defs>
</svg>
