<svg width="55" height="63" viewBox="0 0 55 63" fill="none" xmlns="http://www.w3.org/2000/svg">
<g filter="url(#filter0_d_356_495)">
<mask id="mask0_356_495" style="mask-type:luminance" maskUnits="userSpaceOnUse" x="5" y="14" width="42" height="41">
<path d="M46.6986 41.7822L46.1335 44.939L44.0984 49.9071L40.2787 52.8359L37.6291 53.7754L35.1605 54.0458L29.7897 52.3216L24.9966 52.4213L22.9952 53.3937L15.6872 54.4085L10.9667 50.1668L7.86881 45.0451L5.99579 40.0749L9.45353 26.3373L14.3613 17.1446L26.3235 14.6919L39.3106 16.7714L43.8838 22.4976L46.6986 41.7822Z" fill="white"/>
</mask>
<g mask="url(#mask0_356_495)">
<path d="M26.2456 53.8609C26.2456 50.6563 26.2386 47.0879 26.2245 43.8832C26.2098 40.4684 26.1893 37.0535 26.1488 33.6387C26.1089 37.0535 26.0901 40.4684 26.0737 43.8832C26.0591 47.0879 26.0538 50.6563 26.0526 53.8609H26.2456Z" fill="url(#paint0_linear_356_495)"/>
<path d="M22.9649 53.8609C22.9649 50.6563 22.9578 47.0879 22.9438 43.8832C22.9291 40.4684 22.9086 37.0535 22.8681 33.6387C22.8282 37.0535 22.8095 40.4684 22.793 43.8832C22.7784 47.0879 22.7731 50.6563 22.7719 53.8609H22.9649Z" fill="url(#paint1_linear_356_495)"/>
<path d="M37.4386 53.8609C37.4386 48.9854 37.4245 43.5945 37.3963 38.7241C37.3674 33.5293 37.3169 28.3342 37.245 23.1387C37.1668 28.3335 37.1168 33.5286 37.0949 38.7241C37.0655 43.5996 37.055 48.9905 37.0526 53.8609H37.4386Z" fill="url(#paint2_linear_356_495)"/>
<path d="M20.2632 53.8611C20.2632 49.3379 20.2502 44.4506 20.2209 39.9315C20.1928 35.1117 20.1427 30.292 20.0708 25.4722C19.9898 30.292 19.9534 35.1117 19.9194 39.9315C19.8913 44.4537 19.8795 49.342 19.8772 53.8611H20.2632Z" fill="url(#paint3_linear_356_495)"/>
<path d="M23.5439 53.6666C23.5439 48.359 23.5309 42.496 23.5016 37.1894C23.4735 31.534 23.4234 25.8783 23.3515 20.2222C23.2733 25.8776 23.2228 31.5333 23.2001 37.1894C23.172 42.496 23.1602 48.359 23.1579 53.6666H23.5439Z" fill="url(#paint4_linear_356_495)"/>
<path d="M25.2807 51.7221C25.2807 46.8511 25.2678 41.6417 25.2383 36.7669C25.2101 31.5754 25.1599 26.3846 25.0877 21.1943C25.0093 26.3858 24.9591 31.5767 24.9371 36.7669C24.9077 41.6379 24.8959 46.8473 24.8947 51.7221H25.2807Z" fill="url(#paint5_linear_356_495)"/>
<path d="M22 53.8611C22 49.8945 21.9859 46.0082 21.9566 42.0416C21.9284 37.8151 21.8783 33.5883 21.8064 29.3611C21.7282 33.5876 21.6781 37.8144 21.6562 42.0416C21.6269 46.0082 21.6152 49.8945 21.614 53.8611H22Z" fill="url(#paint6_linear_356_495)"/>
<path d="M16.4035 53.8611C16.4035 51.9388 16.3906 49.6785 16.3612 47.7562C16.3331 45.7082 16.2909 43.6601 16.2111 41.6111C16.1302 43.6601 16.0938 45.7082 16.0598 47.7562C16.0316 49.6785 16.0199 51.9388 16.0175 53.8611H16.4035Z" fill="url(#paint7_linear_356_495)"/>
<path d="M16.9824 53.861C16.9824 51.7335 16.9695 49.3722 16.9402 47.2448C16.912 44.9786 16.8698 42.7115 16.79 40.4443C16.7091 42.7115 16.6727 44.9786 16.6387 47.2448C16.6105 49.3722 16.5988 51.7335 16.5964 53.861H16.9824Z" fill="url(#paint8_linear_356_495)"/>
<path d="M17.5614 53.8609C17.5614 51.5705 17.5485 48.1119 17.5192 45.8236C17.491 43.3823 17.4488 40.941 17.369 38.4998C17.2892 40.941 17.2517 43.3823 17.2188 45.8236C17.1895 48.1139 17.1778 51.5726 17.1754 53.8609H17.5614Z" fill="url(#paint9_linear_356_495)"/>
<path d="M19.6842 53.8609C19.6842 50.6563 19.6713 47.0879 19.642 43.8832C19.6138 40.4684 19.5716 37.0535 19.4918 33.6387C19.4108 37.0535 19.3745 40.4684 19.3404 43.8832C19.3123 47.0879 19.3006 50.6563 19.2982 53.8609H19.6842Z" fill="url(#paint10_linear_356_495)"/>
<path d="M32.421 54.4443C32.421 50.1431 32.4081 45.4696 32.3787 41.1684C32.3504 36.5865 32.3002 32.0025 32.228 27.4165C32.1496 31.9984 32.0994 36.5824 32.0774 41.1684C32.048 45.4696 32.0362 50.1431 32.035 54.4443H32.421Z" fill="url(#paint11_linear_356_495)"/>
<path d="M18.7193 53.8609C18.7193 50.3967 18.7052 46.8167 18.6771 43.3525C18.6477 39.6649 18.6067 35.9692 18.5257 32.2776C18.4459 35.9651 18.4084 39.6608 18.3756 43.3525C18.3462 46.8167 18.3345 50.3967 18.3333 53.8609H18.7193Z" fill="url(#paint12_linear_356_495)"/>
<path d="M36.2807 53.8609C36.2807 51.8891 36.2677 48.9138 36.2383 46.942C36.2101 44.8409 36.1677 42.7357 36.0877 40.6387C36.0077 42.7398 35.97 44.845 35.9371 46.942C35.9076 48.9138 35.8959 51.8891 35.8947 53.8609H36.2807Z" fill="url(#paint13_linear_356_495)"/>
<path d="M35.1228 53.8609C35.1228 50.6614 35.1099 47.8455 35.0805 44.6459C35.0524 41.2365 35.0101 37.826 34.9304 34.4165C34.8494 37.826 34.8131 41.2365 34.779 44.6459C34.7509 47.8455 34.7392 50.6614 34.7368 53.8609H35.1228Z" fill="url(#paint14_linear_356_495)"/>
<path d="M34.5439 53.8611C34.5439 50.3968 34.531 47.0124 34.5016 43.5482C34.4735 39.8606 34.4312 36.1649 34.3515 32.4722C34.2705 36.1649 34.2341 39.8565 34.2001 43.5482C34.172 47.0124 34.1602 50.3968 34.1579 53.8611H34.5439Z" fill="url(#paint15_linear_356_495)"/>
<path d="M18.1403 53.861C18.1403 50.8467 18.1262 47.8479 18.0969 44.8326C18.0688 41.6202 18.0265 38.4078 17.9467 35.1943C17.867 38.4078 17.8294 41.6202 17.7966 44.8326C17.7673 47.8479 17.7555 50.8467 17.7543 53.861H18.1403Z" fill="url(#paint16_linear_356_495)"/>
<path d="M9.84208 53.8609C9.84208 51.5705 9.82916 48.1119 9.79984 45.8236C9.77168 43.3823 9.72947 40.941 9.6497 38.4998C9.56993 40.941 9.53238 43.3823 9.49954 45.8236C9.47021 48.1139 9.45846 51.5726 9.45612 53.8609H9.84208Z" fill="url(#paint17_linear_356_495)"/>
<path d="M11 53.8609C11 50.3967 10.9859 46.8167 10.9566 43.3525C10.9284 39.6649 10.8862 35.9692 10.8064 32.2776C10.7267 35.9651 10.6891 39.6608 10.6563 43.3525C10.6269 46.8167 10.6152 50.3967 10.614 53.8609H11Z" fill="url(#paint18_linear_356_495)"/>
<path d="M10.421 53.861C10.421 50.8467 10.4081 47.8479 10.3787 44.8326C10.3504 41.6202 10.308 38.4078 10.228 35.1943C10.148 38.4078 10.1104 41.6202 10.0774 44.8326C10.048 47.8479 10.0362 50.8467 10.035 53.861H10.421Z" fill="url(#paint19_linear_356_495)"/>
<path d="M38.9824 53.861C38.9824 49.15 38.9695 44.0765 38.9402 39.3655C38.912 34.3455 38.862 29.3254 38.79 24.3054C38.7118 29.3254 38.6614 34.3455 38.6387 39.3655C38.6105 44.0765 38.5988 49.15 38.5964 53.861H38.9824Z" fill="url(#paint20_linear_356_495)"/>
<path d="M26.8245 53.6664C26.8245 47.4402 26.8175 43.6296 26.8034 37.4033C26.7889 30.7688 26.7637 24.1343 26.7277 17.4998C26.6886 24.1343 26.6636 30.7688 26.6527 37.4033C26.638 43.6296 26.6327 47.4402 26.6315 53.6664H26.8245Z" fill="url(#paint21_linear_356_495)"/>
<path d="M39.5614 53.8609C39.5614 48.7166 39.5485 42.5884 39.5192 37.4452C39.491 31.963 39.441 26.4812 39.369 20.9998C39.2908 26.4819 39.2407 31.9637 39.2188 37.4452C39.1895 42.5884 39.1778 48.7166 39.1754 53.8609H39.5614Z" fill="url(#paint22_linear_356_495)"/>
<path d="M41.1052 54.0554C41.1052 49.7377 41.0982 45.1521 41.0841 40.8334C41.0694 36.2315 41.0489 31.6295 41.0084 27.0276C40.9693 31.6295 40.9443 36.2315 40.9333 40.8334C40.9187 45.1521 40.9134 49.7377 40.9122 54.0554H41.1052Z" fill="url(#paint23_linear_356_495)"/>
<path d="M33.9649 53.8609C33.9649 49.1723 33.9579 44.5646 33.9438 39.8759C33.9293 34.8809 33.9041 29.8851 33.8681 24.8887C33.829 29.8851 33.804 34.8809 33.793 39.8759C33.7784 44.5646 33.7731 49.1723 33.7719 53.8609H33.9649Z" fill="url(#paint24_linear_356_495)"/>
<path d="M33.5789 53.861C33.5789 49.7974 33.5648 45.2542 33.5367 41.1865C33.5074 36.8554 33.4663 32.5254 33.3853 28.1943C33.3071 32.5251 33.2571 36.8558 33.2352 41.1865C33.2058 45.2501 33.1953 49.7933 33.1929 53.861H33.5789Z" fill="url(#paint25_linear_356_495)"/>
<path d="M44.9649 53.8609C44.9649 50.6614 44.9578 47.8455 44.9438 44.6459C44.9291 41.2365 44.9086 37.826 44.8681 34.4165C44.8282 37.826 44.8095 41.2365 44.793 44.6459C44.7784 47.8455 44.7731 50.6614 44.7719 53.8609H44.9649Z" fill="url(#paint26_linear_356_495)"/>
<path d="M44.5789 53.8611C44.5789 50.3968 44.5648 47.0124 44.5367 43.5482C44.5073 39.8606 44.4663 36.1649 44.3853 32.4722C44.3055 36.1649 44.268 39.8565 44.2352 43.5482C44.2058 47.0124 44.1953 50.3968 44.1929 53.8611H44.5789Z" fill="url(#paint27_linear_356_495)"/>
<path d="M44 53.8609C44 49.1723 43.9859 44.5646 43.9566 39.8759C43.9284 34.8809 43.8783 29.8851 43.8064 24.8887C43.7282 29.8851 43.6781 34.8809 43.6562 39.8759C43.6269 44.5646 43.6152 49.1723 43.614 53.8609H44Z" fill="url(#paint28_linear_356_495)"/>
<path d="M43.421 53.861C43.421 49.7974 43.408 45.2542 43.3786 41.1865C43.3504 36.8558 43.3002 32.5251 43.228 28.1943C43.1496 32.5251 43.0993 36.8558 43.0774 41.1865C43.048 45.2501 43.0362 49.7933 43.035 53.861H43.421Z" fill="url(#paint29_linear_356_495)"/>
<path d="M33 53.8611C33 48.2687 32.9859 42.3333 32.9566 36.7399C32.9284 30.7799 32.8784 24.8203 32.8064 18.8611C32.7282 24.821 32.6782 30.7806 32.6563 36.7399C32.6269 42.3333 32.6152 48.2687 32.614 53.8611H33Z" fill="url(#paint30_linear_356_495)"/>
<path d="M40.1403 53.861C40.1403 49.4241 40.1262 45.0674 40.0969 40.6295C40.0688 35.9014 40.0187 31.1731 39.9467 26.4443C39.8685 31.1724 39.8185 35.9008 39.7966 40.6295C39.7673 45.0674 39.7555 49.4241 39.7543 53.861H40.1403Z" fill="url(#paint31_linear_356_495)"/>
<path d="M31.2632 53.861C31.2632 50.0124 31.2502 46.1012 31.2209 42.2485C31.1928 38.1468 31.1427 34.0454 31.0708 29.9443C30.9898 34.0457 30.9535 38.1471 30.9194 42.2485C30.8913 46.0971 30.8795 50.0083 30.8772 53.861H31.2632Z" fill="url(#paint32_linear_356_495)"/>
<path d="M37.8245 53.861C37.8245 51.9825 37.8175 46.9689 37.8034 45.0903C37.7893 43.088 37.7682 41.0856 37.7277 39.0833C37.6878 41.0856 37.6691 43.088 37.6527 45.0903C37.6386 46.9689 37.6327 51.9825 37.6315 53.861H37.8245Z" fill="url(#paint33_linear_356_495)"/>
<path d="M38.4035 53.8609C38.4035 52.331 38.3906 46.6721 38.3612 45.1422C38.3331 43.511 38.2909 41.8809 38.2111 40.2498C38.1302 41.8809 38.0938 43.511 38.0598 45.1422C38.0316 46.6721 38.0199 52.331 38.0175 53.8609H38.4035Z" fill="url(#paint34_linear_356_495)"/>
<path d="M35.7018 53.8609C35.7018 51.5679 35.6888 48.1233 35.6595 45.8303C35.6314 43.3868 35.5891 40.9433 35.5094 38.4998C35.4296 40.9433 35.392 43.3868 35.3592 45.8303C35.3299 48.1233 35.3181 51.5679 35.3158 53.8609H35.7018Z" fill="url(#paint35_linear_356_495)"/>
<path d="M15.8246 53.8609C15.8246 50.6563 15.8105 47.0879 15.7823 43.8832C15.7542 40.4684 15.712 37.0535 15.631 33.6387C15.5512 37.0535 15.5137 40.4684 15.4808 43.8832C15.4527 47.0879 15.4409 50.6563 15.4386 53.8609H15.8246Z" fill="url(#paint36_linear_356_495)"/>
<path d="M14.8596 53.8609C14.8596 50.6563 14.8455 47.0879 14.8174 43.8832C14.788 40.4684 14.7458 37.0535 14.666 33.6387C14.5862 37.0535 14.5487 40.4684 14.5159 43.8832C14.4865 47.0879 14.4748 50.6563 14.4736 53.8609H14.8596Z" fill="url(#paint37_linear_356_495)"/>
<path d="M27.4035 54.4443C27.4035 49.5996 27.3906 44.2428 27.3612 39.4033C27.3331 34.2414 27.283 29.0791 27.2111 23.9165C27.1329 29.0784 27.0824 34.2407 27.0597 39.4033C27.0316 44.2479 27.0199 49.6047 27.0175 54.4443H27.4035Z" fill="url(#paint38_linear_356_495)"/>
<path d="M11.3859 53.8611C11.3859 49.3379 11.3789 44.4506 11.3648 39.9315C11.3501 35.1117 11.3296 30.292 11.2891 25.4722C11.25 30.292 11.225 35.1117 11.214 39.9315C11.1994 44.4547 11.1941 49.342 11.1929 53.8611H11.3859Z" fill="url(#paint39_linear_356_495)"/>
<path d="M13.1228 53.8609C13.1228 48.9854 13.1099 43.5945 13.0805 38.7241C13.0524 33.5293 13.0023 28.3342 12.9304 23.1387C12.8522 28.3335 12.8017 33.5286 12.779 38.7241C12.7509 43.5996 12.7392 48.9905 12.7368 53.8609H13.1228Z" fill="url(#paint40_linear_356_495)"/>
<path d="M15.2456 53.8609C15.2456 49.0827 15.2385 43.9721 15.2245 39.1928C15.21 34.1007 15.1848 29.0086 15.1488 23.9165C15.1097 29.0086 15.0847 34.1007 15.0737 39.1928C15.0591 43.9721 15.0538 49.0827 15.0526 53.8609H15.2456Z" fill="url(#paint41_linear_356_495)"/>
<path d="M14.2807 53.8611C14.2807 49.8945 14.2677 46.0082 14.2383 42.0416C14.2101 37.8151 14.1599 33.5883 14.0877 29.3611C14.0092 33.5876 13.959 37.8144 13.9371 42.0416C13.9076 46.0082 13.8959 49.8945 13.8947 53.8611H14.2807Z" fill="url(#paint42_linear_356_495)"/>
<path d="M40.7193 53.8611C40.7193 51.9388 40.7052 49.6785 40.6771 47.7562C40.6477 45.7082 40.6067 43.6601 40.5257 41.6111C40.446 43.6601 40.4084 45.7082 40.3756 47.7562C40.3462 49.6785 40.3345 51.9388 40.3333 53.8611H40.7193Z" fill="url(#paint43_linear_356_495)"/>
<path d="M41.6842 53.861C41.6842 51.7335 41.6772 49.3722 41.6631 47.2448C41.649 44.9786 41.6279 42.7115 41.588 40.4443C41.5475 42.7115 41.5264 44.9786 41.5123 47.2448C41.4982 49.3722 41.4924 51.7335 41.4912 53.861H41.6842Z" fill="url(#paint44_linear_356_495)"/>
<path d="M42.2632 53.8609C42.2632 51.5705 42.2502 48.1119 42.2209 45.8236C42.1928 43.3823 42.1505 40.941 42.0708 38.4998C41.9898 40.941 41.9534 43.3823 41.9194 45.8236C41.8913 48.1139 41.8795 51.5726 41.8772 53.8609H42.2632Z" fill="url(#paint45_linear_356_495)"/>
<path d="M12.5439 53.8609C12.5439 50.6563 12.5309 47.0879 12.5016 43.8832C12.4735 40.4684 12.4312 37.0535 12.3515 33.6387C12.2705 37.0535 12.2341 40.4684 12.2001 43.8832C12.172 47.0879 12.1602 50.6563 12.1579 53.8609H12.5439Z" fill="url(#paint46_linear_356_495)"/>
<path d="M11.9649 53.861C11.9649 49.56 11.9579 44.8866 11.9438 40.5856C11.9291 36.0015 11.9086 31.4174 11.8681 26.8333C11.829 31.415 11.804 35.9991 11.793 40.5856C11.7784 44.8866 11.7731 49.56 11.7719 53.861H11.9649Z" fill="url(#paint47_linear_356_495)"/>
<path d="M13.7018 53.6666C13.7018 50.2025 13.6888 46.6227 13.6595 43.1586C13.6314 39.4713 13.5891 35.7757 13.5094 32.0833C13.4296 35.7757 13.392 39.4672 13.3592 43.1586C13.3299 46.6227 13.3181 50.2025 13.3158 53.6666H13.7018Z" fill="url(#paint48_linear_356_495)"/>
<path d="M25.8596 52.3055C25.8596 49.2901 25.8455 44.7399 25.8162 41.7245C25.7881 38.5111 25.7458 35.2967 25.666 32.0833C25.5863 35.2967 25.5487 38.5111 25.5159 41.7245C25.4865 44.7399 25.4748 49.2901 25.4736 52.3055H25.8596Z" fill="url(#paint49_linear_356_495)"/>
<path d="M24.1228 53.8609C24.1228 50.6614 24.1099 47.8455 24.0805 44.6459C24.0524 41.2365 24.0102 37.826 23.9304 34.4165C23.8495 37.826 23.8131 41.2365 23.7791 44.6459C23.7509 47.8455 23.7392 50.6614 23.7368 53.8609H24.1228Z" fill="url(#paint50_linear_356_495)"/>
<path d="M22.5789 53.8611C22.5789 50.3968 22.5648 47.0124 22.5367 43.5482C22.5073 39.8606 22.4663 36.1649 22.3853 32.4722C22.3055 36.1649 22.268 39.8565 22.2352 43.5482C22.2058 47.0124 22.1953 50.3968 22.1929 53.8611H22.5789Z" fill="url(#paint51_linear_356_495)"/>
<path d="M42.8421 53.861C42.8421 50.8467 42.8292 47.8479 42.7998 44.8326C42.7717 41.6202 42.7294 38.4078 42.6497 35.1943C42.5699 38.4078 42.5324 41.6202 42.4995 44.8326C42.4702 47.8479 42.4585 50.8467 42.4561 53.861H42.8421Z" fill="url(#paint52_linear_356_495)"/>
<path d="M29.1403 51.9164C29.1403 47.2673 29.1262 42.2608 29.0969 37.6116C29.0687 32.6583 29.0187 27.7043 28.9467 22.7498C28.8685 27.7043 28.8184 32.6583 28.7966 37.6116C28.7672 42.2608 28.7555 47.2673 28.7543 51.9164H29.1403Z" fill="url(#paint53_linear_356_495)"/>
<path d="M29.7193 54.4443C29.7193 49.7921 29.7052 46.9435 29.677 42.2903C29.6481 37.3327 29.5976 32.3748 29.5257 27.4165C29.4475 32.3741 29.3975 37.332 29.3756 42.2903C29.3462 46.9425 29.3345 49.791 29.3333 54.4443H29.7193Z" fill="url(#paint54_linear_356_495)"/>
<path d="M30.1052 51.1388C30.1052 46.512 30.0982 41.0002 30.0841 36.3744C30.0696 31.4437 30.0444 26.5133 30.0084 21.5833C29.9693 26.5139 29.9443 31.4443 29.9334 36.3744C29.9187 41.0002 29.9134 46.512 29.9122 51.1388H30.1052Z" fill="url(#paint55_linear_356_495)"/>
<path d="M28.5614 52.8887C28.5614 46.9239 28.5485 40.5902 28.5191 34.6253C28.491 28.2693 28.4409 21.9127 28.369 15.5554C28.2908 21.9114 28.2407 28.268 28.2188 34.6253C28.1895 40.5902 28.1778 46.9239 28.1754 52.8887H28.5614Z" fill="url(#paint56_linear_356_495)"/>
<path d="M21.421 53.8609C21.421 49.1723 21.408 44.5646 21.3786 39.8759C21.3504 34.8809 21.3002 29.8851 21.228 24.8887C21.1496 29.8851 21.0993 34.8809 21.0774 39.8759C21.048 44.5646 21.0362 49.1723 21.035 53.8609H21.421Z" fill="url(#paint57_linear_356_495)"/>
<path d="M20.8421 53.861C20.8421 49.7974 20.8292 45.2542 20.7998 41.1865C20.7717 36.8558 20.7216 32.5251 20.6497 28.1943C20.5715 32.5251 20.5214 36.8558 20.4995 41.1865C20.4702 45.2501 20.4585 49.7933 20.4561 53.861H20.8421Z" fill="url(#paint58_linear_356_495)"/>
<path d="M19.1052 53.8609C19.1052 48.1754 19.0982 42.141 19.0841 36.4545C19.0696 30.3955 19.0444 24.3365 19.0084 18.2776C18.9693 24.3365 18.9443 30.3955 18.9333 36.4545C18.9187 42.141 18.9134 48.1754 18.9122 53.8609H19.1052Z" fill="url(#paint59_linear_356_495)"/>
<path d="M31.8421 54.4444C31.8421 50.0389 31.8292 45.7132 31.7999 41.3067C31.7717 36.6122 31.7217 31.9174 31.6497 27.2222C31.5715 31.9167 31.5214 36.6115 31.4995 41.3067C31.4702 45.7132 31.4585 50.0389 31.4561 54.4444H31.8421Z" fill="url(#paint60_linear_356_495)"/>
<path d="M30.6842 54.4444C30.6842 50.6271 30.6771 46.7476 30.6631 42.9263C30.649 38.8586 30.624 34.7905 30.588 30.7222C30.5475 34.7902 30.5293 38.8582 30.5123 42.9263C30.4983 46.7436 30.4924 50.623 30.4912 54.4444H30.6842Z" fill="url(#paint61_linear_356_495)"/>
<path d="M36.8596 53.861C36.8596 51.9825 36.8467 46.9689 36.8172 45.0903C36.789 43.088 36.7466 41.0856 36.6666 39.0833C36.5866 41.0856 36.5489 43.088 36.516 45.0903C36.4866 46.9689 36.4748 51.9825 36.4736 53.861H36.8596Z" fill="url(#paint62_linear_356_495)"/>
<path d="M27.9824 53.861C27.9824 51.5654 27.9695 43.0775 27.9402 40.7819C27.912 38.3357 27.8698 35.8895 27.79 33.4443C27.709 35.8895 27.6727 38.3357 27.6387 40.7819C27.6105 43.0775 27.5988 51.5654 27.5964 53.861H27.9824Z" fill="url(#paint63_linear_356_495)"/>
<path d="M24.7018 52.4998C24.7018 50.41 24.6889 47.2705 24.6595 45.1807C24.6314 42.9538 24.5892 40.7267 24.5094 38.4998C24.4296 40.7267 24.3921 42.9538 24.3592 45.1807C24.3299 47.2705 24.3181 50.41 24.3158 52.4998H24.7018Z" fill="url(#paint64_linear_356_495)"/>
</g>
<path d="M54.4423 16.38C53.9866 16.5454 53.6773 16.9325 53.3711 17.4022C53.1206 16.7861 52.7218 16.4776 52.1599 16.4479C51.3707 16.398 50.7615 17.2071 50.9561 18.0502C51.0834 18.6069 51.6632 18.9112 52.0452 18.626C52.135 18.5649 52.2031 18.4765 52.2395 18.3737C52.2759 18.2708 52.2786 18.1589 52.2472 18.0544C52.203 17.8773 52.0915 17.7479 51.9 17.7988C51.7948 17.8275 51.678 18.0289 51.5917 17.7797C51.5636 17.6991 51.5642 17.6111 51.5934 17.5308C51.6226 17.4506 51.6785 17.383 51.7516 17.3397C52.082 17.1106 52.3504 17.2867 52.5692 17.574C52.8712 17.9738 52.8607 18.4531 52.5608 18.8932C52.3504 19.2113 52.0199 19.61 51.6738 19.7097C51.1476 19.8613 50.1659 20.365 46.5808 20.154C44.3047 20.0204 30.9314 20.5008 27.8178 20.6407C22.3154 20.8889 9.2873 21.9132 2.29918 24.4709C1.43947 24.7891 0.48192 25.4889 0.0736393 26.2927C-0.129449 26.6925 0.149384 26.894 0.501894 26.8664C0.981729 26.8293 1.36897 26.5398 1.77199 26.1676C1.87722 26.8303 2.19921 27.2354 2.73902 27.4199C3.49665 27.6797 4.26902 27.0636 4.26692 26.1973C4.26692 25.6257 3.76815 25.1761 3.33251 25.349C3.23151 25.3839 3.14492 25.4518 3.08643 25.5418C3.02793 25.6319 3.00086 25.739 3.00946 25.8463C3.00946 26.0287 3.09363 26.1835 3.29146 26.1856C3.40195 26.1856 3.55769 26.0234 3.58715 26.2917C3.59752 26.3752 3.57772 26.4598 3.53136 26.5299C3.48499 26.6 3.41516 26.6509 3.33462 26.6734C2.96106 26.8049 2.73903 26.5674 2.58961 26.227C2.29602 25.5642 2.65486 24.9142 3.52193 24.5918H3.51561C5.68433 23.8495 7.32481 23.6067 8.18978 23.4254C16.3975 21.7616 23.8833 21.471 27.8557 21.2271C30.3664 21.0723 43.0725 20.5814 46.6134 20.7436C47.8572 20.8009 50.8351 20.9949 52.7166 20.0395C53.321 19.71 53.8364 19.2368 54.2182 18.661C54.5591 18.0898 54.818 17.4729 54.9873 16.8286C55.0852 16.38 54.7706 16.2591 54.4423 16.38Z" fill="#0C4413"/>
<path d="M31.125 61.5683C31.0863 61.5033 31.0259 61.4544 30.9546 61.4304C30.9103 61.4135 30.8639 61.4032 30.8167 61.3996H30.7115H30.5873C29.9212 61.3869 29.2562 61.3806 28.588 61.3625L28.245 61.3541V61.0253C28.245 60.2682 28.2516 59.5118 28.265 58.7561C28.2783 58.0003 28.2993 57.2439 28.3281 56.4868C28.3418 56.1082 28.3639 55.7307 28.3891 55.3511C28.4007 55.1623 28.4165 54.9725 28.4333 54.7816C28.4505 54.5868 28.4825 54.3936 28.5291 54.2037C28.7185 53.4466 29.1604 52.7488 29.7844 52.3257C30.0077 51.9971 30.1432 51.6161 30.1779 51.2193C30.2125 50.8226 30.1452 50.4236 29.9823 50.0607C29.9823 50.0607 28.7437 50.4965 28.5438 51.6131C28.6101 51.0988 28.769 48.9123 27.32 47.89C25.87 48.9123 26.0299 51.0988 26.0952 51.6131C25.9016 50.4923 24.663 50.0596 24.663 50.0596C24.4999 50.4225 24.4325 50.8217 24.4673 51.2185C24.5022 51.6153 24.6381 51.9963 24.8619 52.3247C24.0874 51.9768 23.4803 52.1815 23.152 52.366C22.6942 52.5972 21.3158 53.3024 20.7097 53.4264C19.9447 53.5547 17.7349 53.7446 15.1621 52.3395C11.9653 50.593 10.8478 49.118 9.5777 46.4012C8.40126 43.888 8.38339 42.3833 8.44127 40.85C8.46126 40.3092 8.56857 39.0536 8.71063 37.5627C8.48018 38.0484 8.25816 38.534 8.05823 39.0271C7.64832 40.0038 7.35378 41.0256 7.18065 42.0716C7.01582 43.1198 7.01084 44.1872 7.16591 45.2369C7.24479 45.7627 7.36728 46.2809 7.53209 46.7861C7.69869 47.2929 7.90742 47.7845 8.15608 48.2559C8.66078 49.2053 9.30108 50.0749 10.0565 50.8369C10.8171 51.6054 11.668 52.2774 12.5904 52.8379C11.6367 52.3199 10.7493 51.6864 9.9481 50.9514C9.13913 50.2098 8.44281 49.3523 7.88145 48.4065C7.60037 47.9302 7.35925 47.4311 7.16064 46.9145C6.96368 46.3951 6.80953 45.8602 6.69976 45.3154C6.48462 44.2199 6.43599 43.0979 6.55558 41.9878C6.66194 40.8761 6.89389 39.7804 7.24693 38.7217C7.58892 37.6613 8.01719 36.6497 8.40443 35.6465C8.67591 34.9445 8.9232 34.2447 9.11998 33.5406C9.28308 32.0168 9.43566 30.6563 9.54088 29.9172C9.63454 29.2183 9.9481 27.0127 10.2385 24.8208C10.2501 24.5854 10.2585 24.35 10.2659 24.1156C10.2733 23.8813 10.2743 23.6692 10.2775 23.4465C9.61454 23.5653 8.94599 23.6929 8.27184 23.8293C8.12558 23.859 7.96248 23.8887 7.77307 23.9248L7.43635 23.9884C7.4153 24.216 7.38829 24.455 7.35532 24.7052C6.95967 27.685 5.59277 30.9256 4.69729 33.11C3.91755 35.0103 2.39596 38.7472 2.24128 39.7185C2.0866 40.6898 1.75094 42.1055 1.94351 44.1044C2.13607 46.1032 2.78531 49.8391 5.92949 53.2165C8.5307 56.0149 12.3483 58.0053 15.6304 58.86H15.643C19.3091 59.8536 22.367 60.5174 25.7321 60.6404C25.7532 60.1144 25.7728 59.5878 25.7911 59.0604C25.6322 59.0604 25.4754 59.0508 25.3144 59.0424C24.6494 59.0148 23.9854 58.9681 23.3225 58.9087C22.6595 58.8494 21.9976 58.7698 21.3379 58.6702C21.0074 58.6193 20.6781 58.5641 20.3487 58.5026C20.0194 58.4411 19.7047 58.3754 19.3691 58.2905C17.8726 58.0092 16.3994 57.6139 14.9622 57.1082C14.2424 56.8472 13.5367 56.5481 12.8482 56.2121C12.1607 55.8724 11.4932 55.4932 10.8488 55.0764C10.21 54.6543 9.5942 54.1976 9.00422 53.7085C8.85795 53.5855 8.70959 53.4657 8.56648 53.3384L8.13715 52.9588L7.71624 52.5633C7.5805 52.4265 7.44688 52.2875 7.31324 52.1497C6.25261 51.0288 5.40577 49.7207 4.81513 48.2909C4.52145 47.5787 4.29766 46.8392 4.14695 46.0831C3.99395 45.3291 3.9129 44.5621 3.90492 43.7926C3.87862 42.253 4.16323 40.724 4.74147 39.2986C5.29602 37.8829 5.88004 36.48 6.43774 35.0686C6.71344 34.3613 6.9807 33.6509 7.18589 32.9202C7.29045 32.5556 7.37269 32.1848 7.43213 31.81C7.48857 31.4343 7.51985 31.0552 7.52577 30.6753C7.52734 31.0558 7.50309 31.436 7.45317 31.8132C7.40124 32.1904 7.32604 32.5641 7.228 32.9319C7.03543 33.6742 6.78078 34.3868 6.51772 35.0994C5.98632 36.5235 5.43071 37.937 4.90247 39.3612C4.36151 40.7705 4.11089 42.2761 4.16588 43.7862C4.18798 44.5379 4.28137 45.2857 4.44475 46.0195C4.60501 46.7524 4.83619 47.4677 5.13502 48.1551C5.7335 49.5298 6.57781 50.7817 7.62576 51.8485C7.7594 51.979 7.88986 52.1115 8.02455 52.2409L8.43811 52.6163L8.86636 52.9821C9.00842 53.103 9.1568 53.2175 9.30202 53.3363C9.88682 53.8018 10.4959 54.2354 11.1267 54.6353C11.7601 55.0264 12.4153 55.3805 13.0891 55.6957C13.7648 56.0097 14.4564 56.2875 15.161 56.5281C16.5796 56.9962 18.0313 57.3553 19.5038 57.6023H19.5101H19.5301C19.83 57.6734 20.1614 57.7349 20.4771 57.7879C20.7928 57.8409 21.119 57.8939 21.442 57.9321C22.0881 58.0169 22.7374 58.0795 23.3877 58.1283C24.038 58.1771 24.6914 58.2068 25.3449 58.2216C25.5049 58.2216 25.6606 58.229 25.8247 58.2301C25.8468 57.6416 25.8689 57.0541 25.8837 56.4656C25.891 56.0891 25.9058 55.7127 25.91 55.3362C25.91 55.1485 25.91 54.9619 25.91 54.7742C25.909 54.5921 25.8953 54.4104 25.8689 54.2302C25.8164 53.8662 25.704 53.5136 25.5364 53.1868C25.3698 52.8518 25.142 52.5514 24.8651 52.3013C25.4964 52.7255 25.93 53.4222 26.1194 54.1793C26.166 54.3692 26.198 54.5624 26.2151 54.7572C26.232 54.9481 26.2477 55.1379 26.2593 55.3267C26.2846 55.7063 26.3056 56.0838 26.3193 56.4624C26.3477 57.2195 26.3677 57.9756 26.3835 58.7317C26.3993 59.4877 26.3993 60.2438 26.4024 61.0009V61.3275L26.0605 61.3371C25.3954 61.3551 24.7293 61.3604 24.0611 61.371H23.8738H23.8328C23.7853 61.3746 23.7385 61.385 23.6939 61.4018C23.6222 61.4267 23.5615 61.4762 23.5224 61.5417C23.5079 61.5714 23.4986 61.6033 23.495 61.6361C23.4916 61.6776 23.494 61.7194 23.5024 61.7602C23.5193 61.8321 23.562 61.8952 23.6224 61.9373C23.6934 61.9881 23.7773 62.0176 23.8644 62.0221H24.0811H24.3316L25.3291 62.0157H27.3284H29.3278L30.3264 62.0221H30.7009C30.7314 62.0239 30.762 62.0239 30.7925 62.0221C30.8797 62.0183 30.9638 61.9888 31.0345 61.9373C31.0945 61.8951 31.1369 61.832 31.1534 61.7602C31.1609 61.7196 31.163 61.6783 31.1597 61.6372C31.1515 61.6127 31.1398 61.5894 31.125 61.5683Z" fill="#0C4413"/>
<path d="M4.39424 15.8084C5.01087 16.1382 6.51246 16.7787 6.97546 18.8751C7.28377 20.2727 7.49107 21.3141 7.50159 22.5866C8.40444 22.3936 9.33465 22.2143 10.2754 22.0489C10.2754 21.8284 10.2659 21.6067 10.2586 21.3862C10.2586 21.2982 10.2585 21.2112 10.2491 21.1232C10.2266 20.4586 10.17 19.7957 10.0796 19.137C10.0176 18.7044 9.93654 18.2749 9.84078 17.8497C9.79238 17.6306 9.73941 17.4121 9.68189 17.1944C9.61033 16.9293 9.53249 16.6642 9.4441 16.4065C9.34964 16.1257 9.23931 15.8506 9.11367 15.5825C9.08 15.5115 9.04528 15.4415 9.00845 15.3705C8.98951 15.3355 8.96845 15.3015 8.94951 15.2644C8.93057 15.2273 8.89795 15.1753 8.87059 15.1319C8.75416 14.94 8.6165 14.7622 8.46022 14.6017C8.33876 14.4813 8.20051 14.3795 8.04984 14.2995C8.0011 14.2735 7.95083 14.2504 7.89935 14.2305C7.82928 14.204 7.75712 14.1834 7.68363 14.169L7.63102 14.1616C7.59629 14.1616 7.56157 14.1521 7.52579 14.1499L7.4574 14.1446H7.33956H7.2217C7.13511 14.1501 7.04898 14.1615 6.9639 14.1786C6.89493 14.192 6.82678 14.2093 6.75976 14.2305L6.72713 14.2422C6.46752 14.3123 6.24111 14.4732 6.0884 14.696C6.07998 14.7088 6.07051 14.7204 6.06315 14.7342C6.12255 14.7017 6.18493 14.6751 6.2494 14.6547C6.37471 14.6191 6.50287 14.5946 6.63241 14.5815C6.86809 14.5521 7.10735 14.5816 7.32903 14.6674C7.37647 14.686 7.42285 14.7072 7.46794 14.731C7.63769 14.8187 7.79083 14.9357 7.92039 15.0767C8.05704 15.2279 8.17119 15.3983 8.25924 15.5825C8.27398 15.6133 8.28975 15.643 8.30343 15.6737C8.33762 15.7535 8.3678 15.8349 8.39391 15.9176C8.50529 16.2658 8.55098 16.632 8.52861 16.9971C8.52808 17.0063 8.52808 17.0155 8.52861 17.0247C8.51634 17.1947 8.48922 17.3632 8.44758 17.5284C8.3808 17.8008 8.26217 18.0576 8.09824 18.2845C8.19065 17.8714 8.21973 17.4466 8.18451 17.0247C8.17294 16.889 8.15505 16.7543 8.1319 16.6218C8.08558 16.3574 8.00897 16.0994 7.90356 15.853C7.88392 15.8077 7.86287 15.7632 7.84042 15.7193C7.81832 15.6759 7.79518 15.6334 7.77098 15.591C7.63875 15.356 7.45212 15.1566 7.22696 15.0099L7.1838 14.9823C7.01403 14.8853 6.82709 14.8226 6.63347 14.7978C6.417 14.771 6.19834 14.7671 5.98107 14.7862C6.03617 14.6197 6.1304 14.4691 6.25572 14.3472C6.28729 14.3154 6.3199 14.2867 6.35357 14.2581C6.40953 14.2137 6.46822 14.173 6.52929 14.1361C6.58089 14.1041 6.6343 14.075 6.68924 14.0492C6.71239 14.0375 6.73556 14.029 6.75976 14.0184L6.8534 13.9824C6.96417 13.9437 7.07782 13.9139 7.19328 13.8933L7.32376 13.8742L7.39531 13.8679H7.4553C7.51417 13.8641 7.5732 13.8641 7.63207 13.8679C7.66364 13.8679 7.69628 13.8679 7.72784 13.8742C7.91044 13.8946 8.08831 13.9458 8.25398 14.0259C8.34681 14.0716 8.43584 14.1248 8.52021 14.1849C8.5851 14.23 8.64762 14.2785 8.70751 14.3302C8.9712 14.5682 9.19503 14.8475 9.37042 15.1573C9.56378 15.489 9.72551 15.8383 9.85342 16.2008C9.91445 16.3683 9.96953 16.5369 10.0186 16.7066C10.0555 16.8306 10.0902 16.9537 10.1239 17.0777C10.1512 17.1838 10.1765 17.2898 10.2007 17.4022C10.3205 17.9585 10.4097 18.521 10.468 19.0872C10.4858 19.2558 10.5016 19.4244 10.5153 19.5941C10.529 19.7637 10.5395 19.9323 10.5479 20.102C10.5563 20.2717 10.5595 20.4445 10.5627 20.6152C10.5658 20.786 10.5627 20.9482 10.569 21.1147C10.5753 21.2812 10.569 21.4498 10.569 21.6173C10.569 21.7446 10.569 21.8718 10.5616 21.9991L10.6005 21.9927C10.7005 21.1444 10.7742 20.436 10.7963 20.0225C10.892 18.2198 10.7668 16.0438 10.1249 14.6441C10.0018 14.3737 9.89446 14.1372 9.92918 14.0078C10.006 13.7162 11.2866 13.8424 12.4546 13.3408C14.4771 12.4702 16.73 10.9995 17.8465 10.2031C18.9629 9.40672 20.5434 8.534 21.4094 8.32086C22.2755 8.10772 23.2583 8.02924 23.514 6.84583C23.7697 5.66241 23.5719 4.6529 23.6876 3.83745C23.8034 3.02199 23.9633 0.215085 23.0005 0.01997C22.0376 -0.175145 20.9464 1.14507 20.3498 1.75904C19.8026 2.32212 17.6507 4.50338 16.408 5.87449C15.1653 7.2456 13.8152 8.7641 11.3739 10.5795C9.48723 11.9814 8.18873 11.975 7.59315 12.3175C7.05439 12.6282 7.32376 12.8096 6.21256 13.4172C5.50649 13.8042 4.39951 13.8233 3.80603 13.4045C3.4209 13.133 3.04103 12.5392 3.06945 11.9294C3.10733 11.044 3.8355 10.4852 4.41214 10.3452C5.07191 10.1851 6.11681 10.3272 6.08735 11.5933C6.06946 12.3812 5.65802 12.5901 5.3255 12.5699C5.27815 12.5682 5.2317 12.5564 5.18924 12.5352C5.14679 12.514 5.10928 12.4839 5.07926 12.4469C4.92669 12.2486 5.71695 12.1033 5.43284 11.5222C5.26448 11.1776 5.07718 10.9592 4.62892 11.0419C4.26799 11.1087 4.02281 11.3091 4.0207 11.8361C4.0207 11.9846 4.07541 13.1786 5.24658 13.185C6.62821 13.1924 7.38585 12.1182 7.37848 11.1097C7.36901 9.75559 6.1789 8.80653 4.58997 8.81501C2.78533 8.82456 1.34268 10.5594 1.41739 12.4342C1.48579 14.608 3.77761 15.4818 4.39424 15.8084ZM21.8756 1.55756C21.8938 1.52402 21.9153 1.49241 21.9398 1.46319C21.9649 1.43579 21.9916 1.40995 22.0197 1.38578C22.0811 1.33982 22.1493 1.30402 22.2218 1.27974C22.2608 1.26887 22.3005 1.26072 22.3407 1.25535L22.4028 1.24792C22.4245 1.24631 22.4463 1.24631 22.468 1.24792C22.5132 1.25102 22.5582 1.25669 22.6027 1.26489C22.6495 1.27934 22.6956 1.29633 22.7406 1.31579C22.7888 1.33532 22.8339 1.36214 22.8742 1.39532C22.9181 1.42715 22.9593 1.46262 22.9973 1.50136C23.071 1.58154 23.1295 1.67463 23.1699 1.77601C23.1889 1.82533 23.2054 1.87558 23.2193 1.92658C23.2267 1.97218 23.233 2.01779 23.2362 2.06444C23.2393 2.10928 23.2393 2.15428 23.2362 2.19912C23.2309 2.23835 23.2267 2.27758 23.2183 2.31576C23.2118 2.35407 23.203 2.39195 23.192 2.42922C23.1804 2.4607 23.167 2.4915 23.152 2.52147C23.1013 2.63582 23.0253 2.737 22.93 2.81733C22.8391 2.89068 22.7356 2.94674 22.6248 2.98276C22.5634 2.99905 22.5008 3.01004 22.4375 3.01563H22.3375C22.3003 3.01606 22.263 3.01394 22.226 3.00927L22.1681 2.96473L22.2912 2.75265C22.3281 2.68266 22.3681 2.61373 22.3965 2.54057C22.4641 2.40666 22.4984 2.25818 22.4964 2.10792V2.05596L22.4817 2.00718C22.4724 1.97576 22.4582 1.94605 22.4396 1.91917C22.3974 1.86591 22.3413 1.82552 22.2776 1.80252C22.2437 1.78914 22.2084 1.77988 22.1723 1.77495C22.1373 1.77196 22.1021 1.77196 22.0671 1.77495C21.9939 1.77802 21.9221 1.79682 21.8567 1.8301L21.8177 1.76752C21.8203 1.69493 21.8402 1.62403 21.8756 1.56075V1.55756ZM9.97337 12.3356C10.1466 12.2649 10.3189 12.1942 10.49 12.1235L10.5679 12.0896C10.8834 11.9553 11.1905 11.802 11.4876 11.6304C11.8067 11.4435 12.1133 11.2356 12.4052 11.0079C12.4788 10.9517 12.5514 10.8945 12.6241 10.8361C12.8345 10.6612 13.0523 10.4799 13.2617 10.2953C13.5339 10.0571 13.8036 9.81569 14.0709 9.57109C14.3515 9.31235 14.6321 9.05007 14.9127 8.78426C15.4526 8.26996 15.9766 7.73975 16.4911 7.20318C16.75 6.9349 17.0088 6.6645 17.2688 6.39621C17.3992 6.2619 17.5301 6.12757 17.6613 5.99325C17.7924 5.85893 17.925 5.72569 18.059 5.59349C18.1905 5.46518 18.321 5.33581 18.4547 5.2075C18.6599 5.0092 18.8693 4.81303 19.086 4.62321C19.3028 4.4334 19.5238 4.25631 19.7595 4.09301C20.0376 3.88886 20.3403 3.72105 20.6602 3.59356C20.7076 3.57659 20.756 3.55962 20.8054 3.54371C20.9558 3.49662 21.1113 3.46849 21.2684 3.45995C21.3224 3.45677 21.3765 3.45677 21.4305 3.45995C21.4775 3.45995 21.5248 3.46524 21.5725 3.47584H21.5936C21.622 3.48025 21.6501 3.48627 21.6778 3.49387C21.7078 3.50112 21.7373 3.51033 21.7662 3.52145C21.7878 3.52929 21.8089 3.5385 21.8293 3.54902C21.8742 3.56941 21.9172 3.59389 21.9577 3.62218C22.0001 3.65074 22.0398 3.68303 22.0766 3.71868C22.1521 3.79378 22.2143 3.88128 22.2607 3.97743C22.2956 4.05078 22.3217 4.12801 22.3386 4.20753C22.3494 4.26064 22.3562 4.31454 22.3586 4.36871C22.368 4.60303 22.3044 4.83443 22.1766 5.03041C22.1519 5.06923 22.1249 5.10643 22.0955 5.14175L22.0566 5.18947L22.0924 5.20325L22.1334 5.22022C22.1988 5.25201 22.2594 5.29307 22.3133 5.34217C22.3445 5.37008 22.3737 5.4002 22.4007 5.43231C22.4691 5.51805 22.5218 5.61535 22.5564 5.71967C22.5624 5.73773 22.5674 5.75615 22.5712 5.77482C22.5964 5.86946 22.6029 5.96821 22.5901 6.06537C22.5825 6.11762 22.5691 6.16885 22.5501 6.21807C22.5288 6.27556 22.5017 6.33064 22.4691 6.38243C22.4396 6.42728 22.4073 6.47014 22.3723 6.51073C22.2784 6.61565 22.1724 6.70892 22.0566 6.78856C22.0113 6.82143 21.9661 6.85114 21.9198 6.88083C21.8146 6.94657 21.7093 7.00595 21.6104 7.06215L20.7318 7.53509C20.4403 7.69309 20.1488 7.85322 19.8605 8.0144C19.5722 8.17558 19.2838 8.34101 18.9987 8.50962L18.5778 8.7641C18.1569 9.02072 17.736 9.28584 17.3319 9.57003C17.1965 9.66405 17.0618 9.76019 16.9278 9.85845L16.5269 10.1533L16.0955 10.4714C15.9713 10.5626 15.8471 10.6538 15.7209 10.7439C15.1816 11.1414 14.6213 11.5092 14.0425 11.8457C13.7514 12.0111 13.4543 12.1656 13.1512 12.3091C12.9997 12.3801 12.8461 12.448 12.6924 12.5116C12.5388 12.5752 12.382 12.6378 12.2252 12.694C12.16 12.7173 12.0937 12.7385 12.0285 12.7608C11.8348 12.828 11.6402 12.8898 11.4444 12.9464C11.3876 12.9623 11.3298 12.9814 11.2719 12.9973C11.1824 13.0206 11.093 13.0407 11.0035 13.063C10.7699 13.1192 10.5353 13.1691 10.2985 13.2168C10.6626 13.1235 11.0214 13.0132 11.3761 12.8912C11.6475 12.7968 11.9169 12.695 12.1821 12.5826C12.3336 12.518 12.4851 12.4501 12.6346 12.3791C13.0818 12.1667 13.5161 11.9277 13.9352 11.6633C15.0601 10.9676 16.0576 10.0896 17.1362 9.2922C17.2982 9.17131 17.4645 9.05466 17.6307 8.94014C18.0173 8.67503 18.4108 8.42195 18.8114 8.18088L18.9398 8.10453C19.4659 7.78641 20.0047 7.47677 20.5424 7.17561L21.4137 6.69101C21.501 6.64223 21.5852 6.59239 21.6672 6.54043C21.7188 6.50862 21.7725 6.47575 21.8167 6.44182C21.9221 6.36948 22.0156 6.2807 22.0934 6.17883C22.101 6.1701 22.108 6.1609 22.1145 6.15127C22.1505 6.09682 22.1706 6.03322 22.1723 5.9678C22.1728 5.92958 22.1668 5.89156 22.1544 5.85541C22.1362 5.80092 22.1088 5.74999 22.0734 5.70483C22.0405 5.66472 21.9992 5.63248 21.9524 5.61045C21.8483 5.56578 21.7335 5.55252 21.622 5.57227C21.5753 5.57857 21.5292 5.58886 21.4842 5.60303C21.2842 5.66347 19.6721 6.65707 18.9198 7.14804C18.4452 7.4598 17.9727 7.7758 17.5129 8.10241C17.2361 8.30071 16.9626 8.50219 16.6953 8.71321C16.5806 8.80334 16.468 8.89561 16.3543 8.9868C16.1881 9.12112 16.0236 9.25756 15.8608 9.39612C15.7882 9.45762 15.7156 9.51806 15.6441 9.58063C15.4336 9.7662 15.2232 9.95919 15.0127 10.1511C14.8864 10.2667 14.7591 10.3812 14.6286 10.4936C14.282 10.7938 13.9054 11.0568 13.5048 11.2783C13.4553 11.3059 13.4048 11.3324 13.3543 11.3589C13.0029 11.5477 12.6419 11.7163 12.2789 11.8817C12.6861 11.6781 13.0923 11.4713 13.4806 11.2359C13.5564 11.1914 13.63 11.1426 13.7026 11.0949C14.0086 10.895 14.2972 10.6693 14.5655 10.4205C14.6076 10.3823 14.6476 10.3431 14.6896 10.3038C14.978 10.0302 15.2579 9.74499 15.5504 9.47246C15.885 9.16 16.2274 8.85672 16.5774 8.56264C16.9289 8.27102 17.2835 7.98153 17.6476 7.70265C17.7528 7.62099 17.858 7.5404 17.9696 7.45981C18.1737 7.30711 18.3779 7.15547 18.5841 7.00595L18.7483 6.88612C18.8167 6.83522 18.8956 6.78009 18.9797 6.72177L19.2512 6.5362C20.0804 5.9763 21.2411 5.24249 21.3168 5.19584C21.4766 5.10907 21.623 4.99941 21.7514 4.87028C21.7745 4.84474 21.7956 4.81744 21.8146 4.78863C21.8944 4.66958 21.9349 4.52821 21.9303 4.38462C21.9291 4.36042 21.9263 4.33632 21.9219 4.31251C21.9164 4.28157 21.9087 4.25109 21.8987 4.22131C21.8987 4.20965 21.8924 4.19799 21.8872 4.18632C21.8819 4.17466 21.8872 4.18632 21.8872 4.17996C21.8624 4.12197 21.8266 4.0694 21.782 4.02514C21.7596 4.00309 21.7348 3.98353 21.7083 3.96681C21.682 3.94933 21.6538 3.9351 21.6241 3.92441C21.5561 3.90167 21.4853 3.88847 21.4137 3.88517C21.3548 3.88043 21.2957 3.88043 21.2369 3.88517C21.1613 3.89257 21.0864 3.90568 21.0127 3.92441L20.937 3.94455C20.7459 4.00519 20.562 4.08699 20.3887 4.18845C20.2593 4.26162 20.132 4.34326 20.0089 4.42915C19.7119 4.6417 19.4267 4.87039 19.1544 5.11418L18.944 5.29975C18.7388 5.48639 18.5368 5.67938 18.3347 5.87238C18.2 6.00069 18.0674 6.13005 17.9349 6.26154C17.5381 6.65389 17.1456 7.05579 16.7447 7.44815C16.2112 7.97835 15.6704 8.49477 15.1148 8.99846C14.5592 9.50216 13.9888 9.98888 13.408 10.4618C12.8337 10.9489 12.2114 11.3753 11.5507 11.7343C11.3834 11.8213 11.214 11.9008 11.0414 11.975C10.6504 12.1368 10.2514 12.2784 9.84605 12.3992L9.4525 12.518C9.62648 12.4635 9.8001 12.4027 9.97337 12.3356Z" fill="#0C4413"/>
<path d="M43.8691 20.1371C43.8796 20.2962 43.8954 20.4871 43.9164 20.7055H44.0122C44.0122 20.5157 44.0185 20.3259 44.0259 20.135L43.8691 20.1371Z" fill="#0C4413"/>
<path d="M44.0111 21.6015C44.0111 21.4446 44.0111 21.2834 44.0111 21.1296H43.9627C43.9753 21.2792 43.9922 21.4361 44.0111 21.6015Z" fill="#0C4413"/>
<path d="M49.9575 33.1143C49.062 30.9299 47.6941 27.6892 47.2995 24.7095C47.109 23.2758 47.1132 22.2334 47.2437 21.1889L46.7744 21.1677L46.5892 21.1592C46.1252 21.138 45.4748 21.1274 44.6551 21.1274H44.3879C44.3573 21.7923 44.3458 22.4593 44.3479 23.1274C44.3479 23.5841 44.3559 24.0414 44.3721 24.4995C44.6741 26.7943 45.015 29.1876 45.1087 29.9214C45.2023 30.6552 45.3644 32.0316 45.5296 33.5629C45.7211 34.2638 45.962 34.9594 46.2272 35.6572C46.6071 36.6614 47.0291 37.672 47.3647 38.7324C47.7118 39.7916 47.9398 40.8868 48.0445 41.9974C48.1025 42.5517 48.1201 43.1095 48.0971 43.6664C48.0762 44.2231 48.0097 44.7771 47.8982 45.3228C47.6804 46.4119 47.2805 47.4557 46.7155 48.4097C46.154 49.3532 45.4581 50.2086 44.6499 50.9483C43.8489 51.6819 42.9623 52.3147 42.0097 52.8326C42.9308 52.272 43.7809 51.6008 44.5415 50.8338C45.2978 50.0734 45.9392 49.2052 46.445 48.257C46.9429 47.3156 47.2784 46.2958 47.4373 45.2412C47.5185 44.7175 47.5561 44.1879 47.5499 43.658C47.5466 43.1289 47.5048 42.6008 47.4247 42.0779C47.2527 41.0318 46.9614 40.0091 46.5566 39.0303C46.3693 38.5627 46.163 38.1014 45.9473 37.6391C46.0862 39.095 46.1904 40.3155 46.2104 40.8468C46.2683 42.3802 46.2493 43.8849 45.0739 46.3981C43.8028 49.1148 42.6853 50.5899 39.4885 52.3364C36.9167 53.7425 34.707 53.5516 33.9409 53.4233C33.3359 53.2981 31.9563 52.593 31.4997 52.3629C31.1703 52.1784 30.5631 51.9737 29.7887 52.3215C29.5114 52.5713 29.2837 52.8718 29.1173 53.207C28.9496 53.5336 28.8375 53.8863 28.7859 54.2504C28.7592 54.4305 28.7451 54.6123 28.7438 54.7944C28.7438 54.9821 28.7438 55.1687 28.7438 55.3564C28.7438 55.7328 28.7627 56.1093 28.7701 56.4857C28.7848 57.0626 28.8059 57.6395 28.828 58.2163C30.1391 58.1725 31.4481 58.0778 32.755 57.9321C33.661 57.8261 34.5691 57.7073 35.4667 57.5536C36.3635 57.4059 37.2524 57.213 38.13 56.9756C39.8864 56.5145 41.5697 55.8066 43.1304 54.8729C43.9087 54.4005 44.654 53.875 45.3612 53.3003C46.076 52.7372 46.7446 52.117 47.3605 51.4456C47.9652 50.7674 48.4944 50.0246 48.9389 49.2304C49.1605 48.832 49.3597 48.4213 49.5356 48.0003C49.7085 47.5783 49.8584 47.1472 49.9849 46.7088C50.4865 44.9391 50.5737 43.0762 50.2395 41.2667C50.1551 40.8157 50.0412 40.3708 49.8986 39.9349L49.7849 39.6104L49.6629 39.2848L49.4198 38.6359L48.4307 36.041C48.1034 35.1758 47.7699 34.3104 47.5047 33.4218C47.2197 32.5378 47.0738 31.6144 47.0722 30.6849C47.0914 31.6117 47.254 32.5297 47.5541 33.4059C47.8361 34.2861 48.1855 35.1439 48.5285 36.0029L49.5671 38.5775L49.8228 39.2233L49.9502 39.5415L50.0722 39.8702C50.2271 40.3114 50.3519 40.7628 50.4458 41.2211C50.8222 43.064 50.7689 44.9697 50.29 46.7883C50.1678 47.2419 50.0216 47.6886 49.8523 48.1265C49.6796 48.5616 49.4825 48.9865 49.262 49.399C48.818 50.2279 48.2851 51.0052 47.673 51.7171C47.3664 52.0719 47.0422 52.4109 46.7018 52.7329C46.6166 52.8135 46.5324 52.8952 46.445 52.9737L46.1851 53.2048C46.0126 53.3607 45.8347 53.5113 45.659 53.6608C44.9456 54.2632 44.1926 54.8162 43.405 55.3161C41.8165 56.3071 40.0979 57.0688 38.2994 57.579C37.4061 57.8393 36.5004 58.0541 35.5856 58.2227C34.6733 58.3977 33.761 58.5408 32.8424 58.6596C31.5193 58.8335 30.191 58.9551 28.8574 59.0244C28.8757 59.5638 28.8956 60.1024 28.9174 60.6404C32.2846 60.5174 35.3362 59.8536 39.0066 58.86H39.0202C42.3012 58.0053 46.1189 56.0149 48.7201 53.2165C51.86 49.8391 52.5145 46.1033 52.7071 44.1044C52.8997 42.1055 52.5629 40.6888 52.4082 39.7185C52.2536 38.7483 50.7372 35.0146 49.9575 33.1143Z" fill="#0C4413"/>
<path d="M31.1503 6.84488C31.4007 8.0283 32.3835 8.10677 33.2496 8.31991C34.1156 8.53305 35.6961 9.40683 36.8125 10.2021C37.929 10.9974 40.1798 12.4693 42.2054 13.3399C43.3703 13.8415 44.6509 13.7153 44.7309 14.0069C44.7656 14.1373 44.6593 14.3738 44.5351 14.6431C43.9301 15.9644 43.7849 17.9728 43.8512 19.7119H44.0532C44.0669 19.4998 44.0837 19.2877 44.1058 19.0841C44.1712 18.4053 44.2844 17.732 44.4446 17.0694C44.603 16.3926 44.8586 15.7428 45.2033 15.1405C45.3821 14.8275 45.6099 14.5457 45.8778 14.3059C46.018 14.1835 46.1737 14.0804 46.3408 13.9995C46.511 13.9186 46.6935 13.8673 46.8806 13.8478C46.9727 13.8399 47.0653 13.8399 47.1574 13.8478L47.29 13.8606L47.4215 13.8807C47.5972 13.9125 47.768 13.967 47.9298 14.0429C48.0908 14.12 48.2378 14.224 48.3643 14.3505C48.4895 14.4751 48.5824 14.6287 48.6348 14.798L48.6074 14.8086L48.5885 14.816C48.5888 14.8132 48.5888 14.8103 48.5885 14.8075C48.3879 14.7945 48.1865 14.8027 47.9876 14.8319C47.7981 14.8614 47.6159 14.9272 47.451 15.0259C47.1374 15.2319 46.8951 15.5309 46.7575 15.8817C46.6021 16.249 46.5051 16.6387 46.4703 17.0365C46.4281 17.4567 46.4454 17.8809 46.5218 18.2962C46.2473 17.9316 46.0858 17.4933 46.0578 17.0365C46.0172 16.5689 46.0924 16.0985 46.2766 15.6675C46.3726 15.4447 46.505 15.2397 46.6681 15.0609C46.8362 14.8774 47.0445 14.7358 47.2763 14.6474C47.5031 14.5631 47.7472 14.5369 47.9866 14.571C48.1937 14.6027 48.3928 14.6747 48.5727 14.7831C48.4028 14.5277 48.1472 14.3425 47.8529 14.2614C47.7041 14.2163 47.5504 14.19 47.3952 14.1829H47.2784H47.1616C47.0873 14.1849 47.0134 14.1934 46.9406 14.2084C46.6525 14.2746 46.3899 14.4243 46.1851 14.6389C45.9711 14.8636 45.7903 15.1182 45.6484 15.395C45.3609 15.9747 45.1365 16.5841 44.9792 17.2125C44.8075 17.8495 44.6729 18.496 44.5762 19.1488C44.5478 19.3365 44.5257 19.5242 44.5046 19.7129C44.7993 19.7129 45.0729 19.7129 45.3222 19.7129C45.9147 19.7129 46.3366 19.7214 46.6113 19.7373C46.9178 19.755 47.2132 19.7681 47.4973 19.7766C47.5541 19.4935 47.6183 19.2008 47.6867 18.8901C48.1486 16.7937 49.6513 16.1532 50.2669 15.8234C50.8824 15.4936 53.1753 14.6198 53.2616 12.446C53.3363 10.5712 51.8936 8.84058 50.089 8.82679C48.5001 8.81831 47.311 9.76737 47.3015 11.1215C47.2942 12.13 48.0508 13.2042 49.4324 13.1967C50.6046 13.1904 50.6593 11.9964 50.6583 11.8479C50.6583 11.3177 50.411 11.1205 50.0501 11.0537C49.6029 10.9709 49.4187 11.1894 49.2462 11.534C48.962 12.1151 49.7523 12.2604 49.5997 12.4587C49.57 12.4957 49.5327 12.5259 49.4904 12.5471C49.4481 12.5683 49.4017 12.5801 49.3545 12.5817C49.022 12.6018 48.6095 12.3929 48.5916 11.6051C48.5622 10.3389 49.6071 10.1968 50.2669 10.357C50.8445 10.4969 51.5727 11.0558 51.6095 11.9412C51.6359 12.5509 51.256 13.1448 50.873 13.4162C50.2784 13.8404 49.1725 13.816 48.4654 13.429C47.3542 12.8214 47.6236 12.64 47.0848 12.3293C46.4892 11.9868 45.1907 11.9932 43.305 10.5913C40.8627 8.77589 39.5169 7.25845 38.271 5.88628C37.0251 4.51411 34.8753 2.3339 34.3281 1.77082C33.7315 1.15684 32.6445 -0.162309 31.6774 0.0317459C30.7104 0.225801 30.8756 3.03271 30.9903 3.84922C31.105 4.66574 30.8998 5.66146 31.1503 6.84488ZM32.8486 3.5205C32.8775 3.50938 32.907 3.50017 32.937 3.49292C32.9647 3.48532 32.9928 3.4793 33.0212 3.47489H33.0422C33.0892 3.46712 33.1366 3.46183 33.1843 3.459C33.2379 3.45581 33.2917 3.45581 33.3453 3.459C33.5025 3.46755 33.658 3.49567 33.8083 3.54276C33.8578 3.55867 33.9062 3.57564 33.9535 3.59261C34.2738 3.72009 34.5768 3.8879 34.8553 4.09206C35.0542 4.23415 35.2447 4.38685 35.4288 4.54379C35.8245 4.87994 36.1917 5.24048 36.5558 5.59784C36.8925 5.93186 37.2208 6.27014 37.547 6.60841L38.1237 7.20754C38.6424 7.74411 39.1664 8.27432 39.7021 8.78862C40.0251 9.09932 40.3545 9.40471 40.6859 9.70692C40.9059 9.90628 41.1258 10.1046 41.3489 10.2997C41.572 10.4948 41.7698 10.6655 41.9876 10.8405C42.1314 10.9572 42.278 11.0703 42.4274 11.1798C42.6515 11.3438 42.884 11.4957 43.124 11.6348C43.3963 11.7923 43.6774 11.934 43.9659 12.0589L44.1205 12.1268C44.291 12.1975 44.4632 12.2682 44.6372 12.3389C44.8112 12.4096 44.9866 12.4749 45.1633 12.535L44.8129 12.429C44.431 12.3124 44.0511 12.184 43.6796 12.0313C43.4692 11.9455 43.2661 11.8521 43.0651 11.7471C42.4044 11.3881 41.7821 10.9617 41.2079 10.4747C40.627 10.0017 40.0581 9.51394 39.5011 9.0113C39.3608 8.88547 39.2229 8.75857 39.0875 8.63062C38.8834 8.43974 38.681 8.24745 38.4804 8.05375C38.2798 7.86005 38.0767 7.66246 37.8711 7.46098C37.4186 7.01773 36.9756 6.56388 36.5253 6.12275C36.4442 6.04322 36.3632 5.96369 36.2811 5.88522C36.0128 5.62754 35.7424 5.37091 35.4667 5.12702C35.1938 4.88347 34.9083 4.6548 34.6112 4.442C34.5375 4.3911 34.4628 4.33596 34.387 4.29354L34.2734 4.22461C34.0875 4.11287 33.8894 4.02319 33.6831 3.95738C33.6568 3.9489 33.6294 3.94254 33.6021 3.93618C33.5301 3.91832 33.457 3.90557 33.3832 3.89801C33.3244 3.89325 33.2652 3.89325 33.2064 3.89801C33.1348 3.9013 33.064 3.9145 32.9959 3.93724C32.9664 3.94817 32.9382 3.96238 32.9118 3.97965C32.8852 3.99637 32.8605 4.01592 32.8381 4.03798C32.8255 4.0507 32.815 4.06661 32.8034 4.0804C32.7484 4.15179 32.7122 4.23605 32.6982 4.32534C32.6982 4.34867 32.6908 4.37307 32.6897 4.39746C32.6887 4.41582 32.6887 4.43424 32.6897 4.4526C32.6932 4.52996 32.7103 4.60609 32.7403 4.67741C32.7579 4.72042 32.779 4.76191 32.8034 4.80147C32.8276 4.83893 32.8546 4.87439 32.8844 4.90751C33.0109 5.02729 33.1524 5.12996 33.3053 5.21291C33.379 5.2585 34.4828 5.9552 35.3046 6.5098C35.5203 6.65613 35.7182 6.79186 35.8718 6.90321C36.0254 7.01455 36.1875 7.12907 36.3369 7.24253L36.4642 7.33691C36.6347 7.46345 36.8041 7.59105 36.9725 7.71972C37.3366 7.9986 37.6912 8.28809 38.0426 8.57971C38.3941 8.87132 38.7361 9.17673 39.0696 9.48955C39.3622 9.76207 39.6421 10.0473 39.9315 10.3209L40.0546 10.4375C40.3872 10.7465 40.7508 11.0198 41.1395 11.253C41.3341 11.3707 41.532 11.481 41.7329 11.5881C41.9339 11.6952 42.137 11.8002 42.3412 11.8988C41.9602 11.7249 41.5804 11.5467 41.211 11.3463C41.1795 11.3294 41.1468 11.3134 41.1153 11.2954C40.9816 11.2212 40.8501 11.1406 40.7217 11.0568C40.5933 10.9731 40.4576 10.8787 40.3313 10.7832C40.205 10.6878 40.1009 10.6051 39.9914 10.5107C39.882 10.4163 39.8031 10.3463 39.7105 10.2626C39.4643 10.041 39.2222 9.81403 38.9739 9.59771C38.8813 9.51712 38.7877 9.43865 38.694 9.35912C38.5537 9.23965 38.4102 9.12122 38.2636 9.00387C38.151 8.91267 38.0384 8.82042 37.9227 8.73029C37.6554 8.51821 37.3818 8.31779 37.1051 8.11949C36.6442 7.78971 36.1738 7.4737 35.6982 7.16512C34.9458 6.67415 33.3337 5.68056 33.1338 5.62011C33.0915 5.6068 33.0482 5.59687 33.0044 5.59042C32.8903 5.56876 32.7724 5.58167 32.6655 5.62753C32.6188 5.64956 32.5774 5.6818 32.5445 5.72191C32.5362 5.73352 32.5285 5.74555 32.5214 5.75796C32.5076 5.77901 32.4953 5.80098 32.4846 5.8237C32.4765 5.83947 32.4694 5.85578 32.4635 5.87249C32.4481 5.91457 32.4421 5.95952 32.4457 6.0042C32.4493 6.04888 32.4626 6.09223 32.4846 6.13122C32.4909 6.14395 32.4961 6.15561 32.5035 6.16834C32.5109 6.18106 32.5256 6.19803 32.5361 6.21182C32.6122 6.30667 32.7015 6.38989 32.8013 6.45889C32.8465 6.49176 32.8949 6.52145 32.9423 6.5522C32.9896 6.58296 33.0212 6.60205 33.0623 6.62538C33.1033 6.64871 33.1559 6.68158 33.2043 6.70809L34.0756 7.1927C34.1082 7.21178 34.1408 7.23087 34.1745 7.2489C34.7227 7.55642 35.2678 7.8703 35.8066 8.20327L35.876 8.24569C36.3874 8.55745 36.8925 8.88193 37.3797 9.24035C37.4134 9.2658 37.4481 9.28913 37.4849 9.31458C38.5625 10.112 39.56 10.99 40.6849 11.6857C40.808 11.7631 40.9322 11.8373 41.0563 11.9094L41.1826 11.9815C41.3741 12.0876 41.5688 12.1936 41.7666 12.2922C41.9876 12.3982 42.2107 12.5043 42.438 12.605C42.6884 12.7111 42.9441 12.8076 43.2008 12.8977C43.5691 13.0271 43.9427 13.1409 44.3215 13.2392C44.0679 13.1904 43.8154 13.1331 43.5639 13.0727C43.4923 13.0546 43.4197 13.0387 43.3534 13.0196C43.2872 13.0006 43.2356 12.9846 43.1767 12.9666C42.9957 12.9147 42.8157 12.8606 42.6368 12.797C42.5579 12.7704 42.479 12.745 42.4001 12.7164C41.7717 12.4856 41.1638 12.2018 40.5828 11.868C40.004 11.5316 39.4438 11.1638 38.9045 10.7663C38.8045 10.6952 38.7066 10.6231 38.6088 10.5542L38.0984 10.1778C37.9648 10.0791 37.8322 9.98051 37.6975 9.88295C37.5628 9.7854 37.4292 9.6889 37.2945 9.59453C36.8894 9.31034 36.4716 9.04524 36.0475 8.78862L35.6266 8.53412C35.3867 8.39308 35.1447 8.25522 34.9027 8.11843C34.568 7.92968 34.2317 7.7434 33.8935 7.55959L33.0149 7.08665L32.9034 7.02409C32.7883 6.95927 32.6766 6.88848 32.5687 6.81201C32.4673 6.7398 32.3729 6.65813 32.2867 6.56811C32.2398 6.51747 32.1969 6.46322 32.1583 6.40587C32.1346 6.36743 32.1135 6.3274 32.0952 6.28604C32.0668 6.22335 32.0474 6.15696 32.0373 6.08881C32.0246 5.99164 32.031 5.8929 32.0563 5.79825C32.0601 5.77959 32.065 5.76117 32.071 5.74311C32.0794 5.71766 32.0899 5.69221 32.1005 5.66676C32.1179 5.62731 32.138 5.58905 32.1605 5.55225L32.1804 5.51937C32.1952 5.49816 32.2099 5.47695 32.2267 5.45574C32.2992 5.36606 32.3905 5.29364 32.494 5.24366L32.5298 5.22882L32.5708 5.21291L32.5319 5.16519C32.5026 5.12987 32.4755 5.09267 32.4509 5.05384C32.3231 4.85787 32.2594 4.62647 32.2688 4.39215C32.2713 4.33798 32.278 4.28408 32.2888 4.23097C32.2962 4.19597 32.3046 4.16204 32.3151 4.12493C32.3615 3.97891 32.4424 3.84646 32.5508 3.73895C32.5895 3.70006 32.6314 3.66459 32.6761 3.63291C32.7117 3.60903 32.749 3.58776 32.7876 3.56927C32.807 3.55179 32.8273 3.5355 32.8486 3.5205ZM31.6648 2.08788C31.6805 2.0195 31.7034 1.95301 31.7332 1.88959C31.7654 1.82699 31.8069 1.76977 31.8564 1.71992C31.8806 1.69659 31.9058 1.67326 31.9311 1.65206C31.9578 1.6324 31.986 1.61468 32.0152 1.59903C32.0711 1.5686 32.131 1.54646 32.1931 1.53329C32.223 1.52598 32.2538 1.52242 32.2846 1.52269C32.3144 1.52004 32.3443 1.52004 32.3741 1.52269C32.4333 1.52859 32.4912 1.54397 32.5456 1.56828C32.5719 1.58206 32.5971 1.59373 32.6213 1.60964C32.6445 1.62737 32.6664 1.64687 32.6866 1.66796C32.7254 1.70824 32.7533 1.7579 32.7676 1.81218C32.6827 1.83158 32.6041 1.87245 32.5393 1.93094C32.5163 1.95158 32.4948 1.97391 32.4751 1.99775C32.4595 2.01848 32.4451 2.04007 32.4319 2.06243C32.4222 2.08077 32.4141 2.09994 32.4077 2.1197C32.4077 2.12818 32.4014 2.1356 32.4004 2.14196C32.401 2.14937 32.401 2.15682 32.4004 2.16423C32.3941 2.17377 32.4004 2.18862 32.4004 2.19605C32.4035 2.20497 32.4035 2.2147 32.4004 2.22362C32.4017 2.23634 32.3995 2.24919 32.3941 2.26073C32.3945 2.27904 32.392 2.2973 32.3867 2.31481C32.3898 2.33945 32.3898 2.36439 32.3867 2.38903C32.3867 2.41554 32.3867 2.44737 32.3867 2.47918C32.3867 2.51099 32.3867 2.51205 32.3867 2.53008C32.3867 2.5481 32.3867 2.56507 32.393 2.58416C32.393 2.62127 32.3993 2.66157 32.4004 2.70399C32.4117 2.80074 32.4156 2.89824 32.4119 2.9956C32.3594 2.9938 32.3072 2.98632 32.2562 2.97332C32.207 2.96239 32.1591 2.9464 32.1131 2.92561C32.0696 2.90296 32.0275 2.87783 31.9868 2.85032C31.9438 2.82101 31.9055 2.78525 31.8732 2.74428C31.8363 2.70612 31.8035 2.66417 31.7753 2.61915C31.749 2.57037 31.7237 2.51311 31.7017 2.46539C31.6852 2.40547 31.6726 2.34454 31.6638 2.28299C31.6587 2.21804 31.659 2.15277 31.6648 2.08788Z" fill="#0C4413"/>
<path d="M46.6081 20.7352C46.8017 20.7448 47.0374 20.7564 47.3026 20.767C47.3321 20.5762 47.3654 20.3828 47.4026 20.187C47.1437 20.1785 46.868 20.1658 46.5755 20.1488C46.3019 20.1329 45.8673 20.1255 45.3128 20.1255C45.0518 20.1255 44.7646 20.1255 44.4541 20.1255C44.4373 20.3164 44.4247 20.5072 44.4131 20.6992H44.6562C45.4485 20.7034 46.1167 20.713 46.6081 20.7352Z" fill="#0C4413"/>
<path d="M10.2786 23.0192C10.2786 22.839 10.2786 22.6598 10.2786 22.4795C9.33152 22.647 8.39501 22.8284 7.49426 23.0224C7.489 23.1942 7.48058 23.3713 7.46796 23.5526C7.74576 23.5007 7.98671 23.4561 8.18453 23.4158C8.88955 23.2744 9.58757 23.1422 10.2786 23.0192Z" fill="#0C4413"/>
</g>
<defs>
<filter id="filter0_d_356_495" x="-19.995" y="-15.9995" width="95.0005" height="102.023" filterUnits="userSpaceOnUse" color-interpolation-filters="sRGB">
<feFlood flood-opacity="0" result="BackgroundImageFix"/>
<feColorMatrix in="SourceAlpha" type="matrix" values="0 0 0 0 0 0 0 0 0 0 0 0 0 0 0 0 0 0 127 0" result="hardAlpha"/>
<feOffset dy="4"/>
<feGaussianBlur stdDeviation="10"/>
<feComposite in2="hardAlpha" operator="out"/>
<feColorMatrix type="matrix" values="0 0 0 0 1 0 0 0 0 1 0 0 0 0 1 0 0 0 1 0"/>
<feBlend mode="normal" in2="BackgroundImageFix" result="effect1_dropShadow_356_495"/>
<feBlend mode="normal" in="SourceGraphic" in2="effect1_dropShadow_356_495" result="shape"/>
</filter>
<linearGradient id="paint0_linear_356_495" x1="26.1491" y1="33.6387" x2="26.1491" y2="53.8609" gradientUnits="userSpaceOnUse">
<stop stop-color="#0C4413" stop-opacity="0"/>
<stop offset="1" stop-color="#0C4413"/>
</linearGradient>
<linearGradient id="paint1_linear_356_495" x1="22.8684" y1="33.6387" x2="22.8684" y2="53.8609" gradientUnits="userSpaceOnUse">
<stop stop-color="#0C4413" stop-opacity="0"/>
<stop offset="1" stop-color="#0C4413"/>
</linearGradient>
<linearGradient id="paint2_linear_356_495" x1="37.2456" y1="23.1387" x2="37.2456" y2="53.8609" gradientUnits="userSpaceOnUse">
<stop stop-color="#0C4413" stop-opacity="0"/>
<stop offset="1" stop-color="#0C4413"/>
</linearGradient>
<linearGradient id="paint3_linear_356_495" x1="20.0702" y1="25.4722" x2="20.0702" y2="53.8611" gradientUnits="userSpaceOnUse">
<stop stop-color="#0C4413" stop-opacity="0"/>
<stop offset="1" stop-color="#0C4413"/>
</linearGradient>
<linearGradient id="paint4_linear_356_495" x1="23.3509" y1="20.2222" x2="23.3509" y2="53.6666" gradientUnits="userSpaceOnUse">
<stop stop-color="#0C4413" stop-opacity="0"/>
<stop offset="1" stop-color="#0C4413"/>
</linearGradient>
<linearGradient id="paint5_linear_356_495" x1="25.0877" y1="21.1943" x2="25.0877" y2="51.7221" gradientUnits="userSpaceOnUse">
<stop stop-color="#0C4413" stop-opacity="0"/>
<stop offset="1" stop-color="#0C4413"/>
</linearGradient>
<linearGradient id="paint6_linear_356_495" x1="21.807" y1="29.3611" x2="21.807" y2="53.8611" gradientUnits="userSpaceOnUse">
<stop stop-color="#0C4413" stop-opacity="0"/>
<stop offset="1" stop-color="#0C4413"/>
</linearGradient>
<linearGradient id="paint7_linear_356_495" x1="16.2105" y1="41.6111" x2="16.2105" y2="53.8611" gradientUnits="userSpaceOnUse">
<stop stop-color="#0C4413" stop-opacity="0"/>
<stop offset="1" stop-color="#0C4413"/>
</linearGradient>
<linearGradient id="paint8_linear_356_495" x1="16.7894" y1="40.4443" x2="16.7894" y2="53.861" gradientUnits="userSpaceOnUse">
<stop stop-color="#0C4413" stop-opacity="0"/>
<stop offset="1" stop-color="#0C4413"/>
</linearGradient>
<linearGradient id="paint9_linear_356_495" x1="17.3684" y1="38.4998" x2="17.3684" y2="53.8609" gradientUnits="userSpaceOnUse">
<stop stop-color="#0C4413" stop-opacity="0"/>
<stop offset="1" stop-color="#0C4413"/>
</linearGradient>
<linearGradient id="paint10_linear_356_495" x1="19.4912" y1="33.6387" x2="19.4912" y2="53.8609" gradientUnits="userSpaceOnUse">
<stop stop-color="#0C4413" stop-opacity="0"/>
<stop offset="1" stop-color="#0C4413"/>
</linearGradient>
<linearGradient id="paint11_linear_356_495" x1="32.228" y1="27.4165" x2="32.228" y2="54.4443" gradientUnits="userSpaceOnUse">
<stop stop-color="#0C4413" stop-opacity="0"/>
<stop offset="1" stop-color="#0C4413"/>
</linearGradient>
<linearGradient id="paint12_linear_356_495" x1="18.5263" y1="32.2776" x2="18.5263" y2="53.8609" gradientUnits="userSpaceOnUse">
<stop stop-color="#0C4413" stop-opacity="0"/>
<stop offset="1" stop-color="#0C4413"/>
</linearGradient>
<linearGradient id="paint13_linear_356_495" x1="36.0877" y1="40.6387" x2="36.0877" y2="53.8609" gradientUnits="userSpaceOnUse">
<stop stop-color="#0C4413" stop-opacity="0"/>
<stop offset="1" stop-color="#0C4413"/>
</linearGradient>
<linearGradient id="paint14_linear_356_495" x1="34.9298" y1="34.4165" x2="34.9298" y2="53.8609" gradientUnits="userSpaceOnUse">
<stop stop-color="#0C4413" stop-opacity="0"/>
<stop offset="1" stop-color="#0C4413"/>
</linearGradient>
<linearGradient id="paint15_linear_356_495" x1="34.3509" y1="32.4722" x2="34.3509" y2="53.8611" gradientUnits="userSpaceOnUse">
<stop stop-color="#0C4413" stop-opacity="0"/>
<stop offset="1" stop-color="#0C4413"/>
</linearGradient>
<linearGradient id="paint16_linear_356_495" x1="17.9473" y1="35.1943" x2="17.9473" y2="53.861" gradientUnits="userSpaceOnUse">
<stop stop-color="#0C4413" stop-opacity="0"/>
<stop offset="1" stop-color="#0C4413"/>
</linearGradient>
<linearGradient id="paint17_linear_356_495" x1="9.6491" y1="38.4998" x2="9.6491" y2="53.8609" gradientUnits="userSpaceOnUse">
<stop stop-color="#0C4413" stop-opacity="0"/>
<stop offset="1" stop-color="#0C4413"/>
</linearGradient>
<linearGradient id="paint18_linear_356_495" x1="10.807" y1="32.2776" x2="10.807" y2="53.8609" gradientUnits="userSpaceOnUse">
<stop stop-color="#0C4413" stop-opacity="0"/>
<stop offset="1" stop-color="#0C4413"/>
</linearGradient>
<linearGradient id="paint19_linear_356_495" x1="10.228" y1="35.1943" x2="10.228" y2="53.861" gradientUnits="userSpaceOnUse">
<stop stop-color="#0C4413" stop-opacity="0"/>
<stop offset="1" stop-color="#0C4413"/>
</linearGradient>
<linearGradient id="paint20_linear_356_495" x1="38.7894" y1="24.3054" x2="38.7894" y2="53.861" gradientUnits="userSpaceOnUse">
<stop stop-color="#0C4413" stop-opacity="0"/>
<stop offset="1" stop-color="#0C4413"/>
</linearGradient>
<linearGradient id="paint21_linear_356_495" x1="26.728" y1="17.4998" x2="26.728" y2="53.6664" gradientUnits="userSpaceOnUse">
<stop stop-color="#0C4413" stop-opacity="0"/>
<stop offset="1" stop-color="#0C4413"/>
</linearGradient>
<linearGradient id="paint22_linear_356_495" x1="39.3684" y1="20.9998" x2="39.3684" y2="53.8609" gradientUnits="userSpaceOnUse">
<stop stop-color="#0C4413" stop-opacity="0"/>
<stop offset="1" stop-color="#0C4413"/>
</linearGradient>
<linearGradient id="paint23_linear_356_495" x1="41.0087" y1="27.0276" x2="41.0087" y2="54.0554" gradientUnits="userSpaceOnUse">
<stop stop-color="#0C4413" stop-opacity="0"/>
<stop offset="1" stop-color="#0C4413"/>
</linearGradient>
<linearGradient id="paint24_linear_356_495" x1="33.8684" y1="24.8887" x2="33.8684" y2="53.8609" gradientUnits="userSpaceOnUse">
<stop stop-color="#0C4413" stop-opacity="0"/>
<stop offset="1" stop-color="#0C4413"/>
</linearGradient>
<linearGradient id="paint25_linear_356_495" x1="33.3859" y1="28.1943" x2="33.3859" y2="53.861" gradientUnits="userSpaceOnUse">
<stop stop-color="#0C4413" stop-opacity="0"/>
<stop offset="1" stop-color="#0C4413"/>
</linearGradient>
<linearGradient id="paint26_linear_356_495" x1="44.8684" y1="34.4165" x2="44.8684" y2="53.8609" gradientUnits="userSpaceOnUse">
<stop stop-color="#0C4413" stop-opacity="0"/>
<stop offset="1" stop-color="#0C4413"/>
</linearGradient>
<linearGradient id="paint27_linear_356_495" x1="44.3859" y1="32.4722" x2="44.3859" y2="53.8611" gradientUnits="userSpaceOnUse">
<stop stop-color="#0C4413" stop-opacity="0"/>
<stop offset="1" stop-color="#0C4413"/>
</linearGradient>
<linearGradient id="paint28_linear_356_495" x1="43.807" y1="24.8887" x2="43.807" y2="53.8609" gradientUnits="userSpaceOnUse">
<stop stop-color="#0C4413" stop-opacity="0"/>
<stop offset="1" stop-color="#0C4413"/>
</linearGradient>
<linearGradient id="paint29_linear_356_495" x1="43.228" y1="28.1943" x2="43.228" y2="53.861" gradientUnits="userSpaceOnUse">
<stop stop-color="#0C4413" stop-opacity="0"/>
<stop offset="1" stop-color="#0C4413"/>
</linearGradient>
<linearGradient id="paint30_linear_356_495" x1="32.807" y1="18.8611" x2="32.807" y2="53.8611" gradientUnits="userSpaceOnUse">
<stop stop-color="#0C4413" stop-opacity="0"/>
<stop offset="1" stop-color="#0C4413"/>
</linearGradient>
<linearGradient id="paint31_linear_356_495" x1="39.9473" y1="26.4443" x2="39.9473" y2="53.861" gradientUnits="userSpaceOnUse">
<stop stop-color="#0C4413" stop-opacity="0"/>
<stop offset="1" stop-color="#0C4413"/>
</linearGradient>
<linearGradient id="paint32_linear_356_495" x1="31.0702" y1="29.9443" x2="31.0702" y2="53.861" gradientUnits="userSpaceOnUse">
<stop stop-color="#0C4413" stop-opacity="0"/>
<stop offset="1" stop-color="#0C4413"/>
</linearGradient>
<linearGradient id="paint33_linear_356_495" x1="37.728" y1="39.0833" x2="37.728" y2="53.861" gradientUnits="userSpaceOnUse">
<stop stop-color="#0C4413" stop-opacity="0"/>
<stop offset="1" stop-color="#0C4413"/>
</linearGradient>
<linearGradient id="paint34_linear_356_495" x1="38.2105" y1="40.2498" x2="38.2105" y2="53.8609" gradientUnits="userSpaceOnUse">
<stop stop-color="#0C4413" stop-opacity="0"/>
<stop offset="1" stop-color="#0C4413"/>
</linearGradient>
<linearGradient id="paint35_linear_356_495" x1="35.5088" y1="38.4998" x2="35.5088" y2="53.8609" gradientUnits="userSpaceOnUse">
<stop stop-color="#0C4413" stop-opacity="0"/>
<stop offset="1" stop-color="#0C4413"/>
</linearGradient>
<linearGradient id="paint36_linear_356_495" x1="15.6316" y1="33.6387" x2="15.6316" y2="53.8609" gradientUnits="userSpaceOnUse">
<stop stop-color="#0C4413" stop-opacity="0"/>
<stop offset="1" stop-color="#0C4413"/>
</linearGradient>
<linearGradient id="paint37_linear_356_495" x1="14.6666" y1="33.6387" x2="14.6666" y2="53.8609" gradientUnits="userSpaceOnUse">
<stop stop-color="#0C4413" stop-opacity="0"/>
<stop offset="1" stop-color="#0C4413"/>
</linearGradient>
<linearGradient id="paint38_linear_356_495" x1="27.2105" y1="23.9165" x2="27.2105" y2="54.4443" gradientUnits="userSpaceOnUse">
<stop stop-color="#0C4413" stop-opacity="0"/>
<stop offset="1" stop-color="#0C4413"/>
</linearGradient>
<linearGradient id="paint39_linear_356_495" x1="11.2894" y1="25.4722" x2="11.2894" y2="53.8611" gradientUnits="userSpaceOnUse">
<stop stop-color="#0C4413" stop-opacity="0"/>
<stop offset="1" stop-color="#0C4413"/>
</linearGradient>
<linearGradient id="paint40_linear_356_495" x1="12.9298" y1="23.1387" x2="12.9298" y2="53.8609" gradientUnits="userSpaceOnUse">
<stop stop-color="#0C4413" stop-opacity="0"/>
<stop offset="1" stop-color="#0C4413"/>
</linearGradient>
<linearGradient id="paint41_linear_356_495" x1="15.1491" y1="23.9165" x2="15.1491" y2="53.8609" gradientUnits="userSpaceOnUse">
<stop stop-color="#0C4413" stop-opacity="0"/>
<stop offset="1" stop-color="#0C4413"/>
</linearGradient>
<linearGradient id="paint42_linear_356_495" x1="14.0877" y1="29.3611" x2="14.0877" y2="53.8611" gradientUnits="userSpaceOnUse">
<stop stop-color="#0C4413" stop-opacity="0"/>
<stop offset="1" stop-color="#0C4413"/>
</linearGradient>
<linearGradient id="paint43_linear_356_495" x1="40.5263" y1="41.6111" x2="40.5263" y2="53.8611" gradientUnits="userSpaceOnUse">
<stop stop-color="#0C4413" stop-opacity="0"/>
<stop offset="1" stop-color="#0C4413"/>
</linearGradient>
<linearGradient id="paint44_linear_356_495" x1="41.5877" y1="40.4443" x2="41.5877" y2="53.861" gradientUnits="userSpaceOnUse">
<stop stop-color="#0C4413" stop-opacity="0"/>
<stop offset="1" stop-color="#0C4413"/>
</linearGradient>
<linearGradient id="paint45_linear_356_495" x1="42.0702" y1="38.4998" x2="42.0702" y2="53.8609" gradientUnits="userSpaceOnUse">
<stop stop-color="#0C4413" stop-opacity="0"/>
<stop offset="1" stop-color="#0C4413"/>
</linearGradient>
<linearGradient id="paint46_linear_356_495" x1="12.3509" y1="33.6387" x2="12.3509" y2="53.8609" gradientUnits="userSpaceOnUse">
<stop stop-color="#0C4413" stop-opacity="0"/>
<stop offset="1" stop-color="#0C4413"/>
</linearGradient>
<linearGradient id="paint47_linear_356_495" x1="11.8684" y1="26.8333" x2="11.8684" y2="53.861" gradientUnits="userSpaceOnUse">
<stop stop-color="#0C4413" stop-opacity="0"/>
<stop offset="1" stop-color="#0C4413"/>
</linearGradient>
<linearGradient id="paint48_linear_356_495" x1="13.5088" y1="32.0833" x2="13.5088" y2="53.6666" gradientUnits="userSpaceOnUse">
<stop stop-color="#0C4413" stop-opacity="0"/>
<stop offset="1" stop-color="#0C4413"/>
</linearGradient>
<linearGradient id="paint49_linear_356_495" x1="25.6666" y1="32.0833" x2="25.6666" y2="52.3055" gradientUnits="userSpaceOnUse">
<stop stop-color="#0C4413" stop-opacity="0"/>
<stop offset="1" stop-color="#0C4413"/>
</linearGradient>
<linearGradient id="paint50_linear_356_495" x1="23.9298" y1="34.4165" x2="23.9298" y2="53.8609" gradientUnits="userSpaceOnUse">
<stop stop-color="#0C4413" stop-opacity="0"/>
<stop offset="1" stop-color="#0C4413"/>
</linearGradient>
<linearGradient id="paint51_linear_356_495" x1="22.3859" y1="32.4722" x2="22.3859" y2="53.8611" gradientUnits="userSpaceOnUse">
<stop stop-color="#0C4413" stop-opacity="0"/>
<stop offset="1" stop-color="#0C4413"/>
</linearGradient>
<linearGradient id="paint52_linear_356_495" x1="42.6491" y1="35.1943" x2="42.6491" y2="53.861" gradientUnits="userSpaceOnUse">
<stop stop-color="#0C4413" stop-opacity="0"/>
<stop offset="1" stop-color="#0C4413"/>
</linearGradient>
<linearGradient id="paint53_linear_356_495" x1="28.9473" y1="22.7498" x2="28.9473" y2="51.9164" gradientUnits="userSpaceOnUse">
<stop stop-color="#0C4413" stop-opacity="0"/>
<stop offset="1" stop-color="#0C4413"/>
</linearGradient>
<linearGradient id="paint54_linear_356_495" x1="29.5263" y1="27.4165" x2="29.5263" y2="54.4443" gradientUnits="userSpaceOnUse">
<stop stop-color="#0C4413" stop-opacity="0"/>
<stop offset="1" stop-color="#0C4413"/>
</linearGradient>
<linearGradient id="paint55_linear_356_495" x1="30.0087" y1="21.5833" x2="30.0087" y2="51.1388" gradientUnits="userSpaceOnUse">
<stop stop-color="#0C4413" stop-opacity="0"/>
<stop offset="1" stop-color="#0C4413"/>
</linearGradient>
<linearGradient id="paint56_linear_356_495" x1="28.3684" y1="15.5554" x2="28.3684" y2="52.8887" gradientUnits="userSpaceOnUse">
<stop stop-color="#0C4413" stop-opacity="0"/>
<stop offset="1" stop-color="#0C4413"/>
</linearGradient>
<linearGradient id="paint57_linear_356_495" x1="21.228" y1="24.8887" x2="21.228" y2="53.8609" gradientUnits="userSpaceOnUse">
<stop stop-color="#0C4413" stop-opacity="0"/>
<stop offset="1" stop-color="#0C4413"/>
</linearGradient>
<linearGradient id="paint58_linear_356_495" x1="20.6491" y1="28.1943" x2="20.6491" y2="53.861" gradientUnits="userSpaceOnUse">
<stop stop-color="#0C4413" stop-opacity="0"/>
<stop offset="1" stop-color="#0C4413"/>
</linearGradient>
<linearGradient id="paint59_linear_356_495" x1="19.0087" y1="18.2776" x2="19.0087" y2="53.8609" gradientUnits="userSpaceOnUse">
<stop stop-color="#0C4413" stop-opacity="0"/>
<stop offset="1" stop-color="#0C4413"/>
</linearGradient>
<linearGradient id="paint60_linear_356_495" x1="31.6491" y1="27.2222" x2="31.6491" y2="54.4444" gradientUnits="userSpaceOnUse">
<stop stop-color="#0C4413" stop-opacity="0"/>
<stop offset="1" stop-color="#0C4413"/>
</linearGradient>
<linearGradient id="paint61_linear_356_495" x1="30.5877" y1="30.7222" x2="30.5877" y2="54.4444" gradientUnits="userSpaceOnUse">
<stop stop-color="#0C4413" stop-opacity="0"/>
<stop offset="1" stop-color="#0C4413"/>
</linearGradient>
<linearGradient id="paint62_linear_356_495" x1="36.6666" y1="39.0833" x2="36.6666" y2="53.861" gradientUnits="userSpaceOnUse">
<stop stop-color="#0C4413" stop-opacity="0"/>
<stop offset="1" stop-color="#0C4413"/>
</linearGradient>
<linearGradient id="paint63_linear_356_495" x1="27.7894" y1="33.4443" x2="27.7894" y2="53.861" gradientUnits="userSpaceOnUse">
<stop stop-color="#0C4413" stop-opacity="0"/>
<stop offset="1" stop-color="#0C4413"/>
</linearGradient>
<linearGradient id="paint64_linear_356_495" x1="24.5088" y1="38.4998" x2="24.5088" y2="52.4998" gradientUnits="userSpaceOnUse">
<stop stop-color="#0C4413" stop-opacity="0"/>
<stop offset="1" stop-color="#0C4413"/>
</linearGradient>
</defs>
</svg>
