<svg width="256" height="97" viewBox="0 0 256 97" fill="none" xmlns="http://www.w3.org/2000/svg">
<path d="M41.625 21.5L15.25 60.5625H41.625V21.5ZM37.625 1.6875H64.375V60.5625H77.6875V78H64.375V95H41.625V78H0.25V57.375L37.625 1.6875ZM142.5 48.25C142.5 36.5833 141.396 28.375 139.188 23.625C137.021 18.8333 133.354 16.4375 128.188 16.4375C123.021 16.4375 119.333 18.8333 117.125 23.625C114.917 28.375 113.812 36.5833 113.812 48.25C113.812 60.0417 114.917 68.3542 117.125 73.1875C119.333 78.0208 123.021 80.4375 128.188 80.4375C133.312 80.4375 136.979 78.0208 139.188 73.1875C141.396 68.3542 142.5 60.0417 142.5 48.25ZM166.562 48.4375C166.562 63.8958 163.229 75.8333 156.562 84.25C149.896 92.625 140.438 96.8125 128.188 96.8125C115.896 96.8125 106.417 92.625 99.75 84.25C93.0833 75.8333 89.75 63.8958 89.75 48.4375C89.75 32.9375 93.0833 21 99.75 12.625C106.417 4.20833 115.896 0 128.188 0C140.438 0 149.896 4.20833 156.562 12.625C163.229 21 166.562 32.9375 166.562 48.4375ZM219.875 21.5L193.5 60.5625H219.875V21.5ZM215.875 1.6875H242.625V60.5625H255.938V78H242.625V95H219.875V78H178.5V57.375L215.875 1.6875Z" fill="#0C4413"/>
</svg>
